<svg version="1.1" xmlns="http://www.w3.org/2000/svg" viewBox="0 0 164.26258556798848 157.98645537877007" width="164.26258556798848" height="157.98645537877007">
  <!-- svg-source:excalidraw -->
  
  <defs>
    <style>
      @font-face {
        font-family: "Virgil";
        src: url("https://unpkg.com/@zsviczian/excalidraw@0.11.0-obsidian-18/dist/excalidraw-assets/Virgil.woff2");
      }
      @font-face {
        font-family: "Cascadia";
        src: url("https://unpkg.com/@zsviczian/excalidraw@0.11.0-obsidian-18/dist/excalidraw-assets/Cascadia.woff2");
      }
    </style>
  </defs>
  <rect x="0" y="0" width="164.26258556798848" height="157.98645537877007" fill="#ffffff"/><g stroke-linecap="round" transform="translate(16.357028358439095 17.249154584581447) rotate(1479.7768138102779 60.74623873256519 61.65289901215584)"><path d="M121.49 61.65 C121.49 64.13, 121.34 66.63, 121.05 69.08 C120.76 71.54, 120.31 74, 119.73 76.41 C119.14 78.81, 118.41 81.2, 117.54 83.52 C116.68 85.83, 115.67 88.11, 114.53 90.3 C113.4 92.5, 112.13 94.64, 110.74 96.68 C109.35 98.71, 107.83 100.68, 106.22 102.54 C104.6 104.39, 102.86 106.16, 101.03 107.8 C99.2 109.44, 97.26 110.99, 95.25 112.39 C93.25 113.8, 91.14 115.09, 88.98 116.24 C86.82 117.4, 84.57 118.42, 82.29 119.3 C80.01 120.18, 77.65 120.92, 75.28 121.51 C72.91 122.11, 70.49 122.56, 68.07 122.86 C65.65 123.15, 63.19 123.31, 60.75 123.31 C58.31 123.31, 55.85 123.15, 53.42 122.86 C51 122.56, 48.58 122.11, 46.21 121.51 C43.84 120.92, 41.49 120.18, 39.21 119.3 C36.92 118.42, 34.68 117.4, 32.52 116.24 C30.35 115.09, 28.25 113.8, 26.24 112.39 C24.23 110.99, 22.29 109.44, 20.46 107.8 C18.64 106.16, 16.9 104.39, 15.28 102.54 C13.66 100.68, 12.14 98.71, 10.75 96.68 C9.37 94.64, 8.09 92.5, 6.96 90.3 C5.82 88.11, 4.81 85.83, 3.95 83.52 C3.08 81.2, 2.35 78.81, 1.77 76.41 C1.18 74, 0.74 71.54, 0.44 69.08 C0.15 66.63, 0 64.13, 0 61.65 C0 59.18, 0.15 56.68, 0.44 54.22 C0.74 51.76, 1.18 49.3, 1.77 46.9 C2.35 44.49, 3.08 42.11, 3.95 39.79 C4.81 37.47, 5.82 35.19, 6.96 33 C8.09 30.81, 9.37 28.67, 10.75 26.63 C12.14 24.59, 13.66 22.62, 15.28 20.77 C16.9 18.92, 18.64 17.15, 20.46 15.51 C22.29 13.86, 24.23 12.32, 26.24 10.91 C28.25 9.51, 30.35 8.21, 32.52 7.06 C34.68 5.91, 36.92 4.88, 39.21 4.01 C41.49 3.13, 43.84 2.38, 46.21 1.79 C48.58 1.2, 51 0.75, 53.42 0.45 C55.85 0.15, 58.31 0, 60.75 0 C63.19 0, 65.65 0.15, 68.07 0.45 C70.49 0.75, 72.91 1.2, 75.28 1.79 C77.65 2.38, 80.01 3.13, 82.29 4.01 C84.57 4.88, 86.82 5.91, 88.98 7.06 C91.14 8.21, 93.25 9.51, 95.25 10.91 C97.26 12.32, 99.2 13.86, 101.03 15.51 C102.86 17.15, 104.6 18.92, 106.22 20.77 C107.83 22.62, 109.35 24.59, 110.74 26.63 C112.13 28.67, 113.4 30.81, 114.53 33 C115.67 35.19, 116.68 37.47, 117.54 39.79 C118.41 42.11, 119.14 44.49, 119.73 46.9 C120.31 49.3, 120.76 51.76, 121.05 54.22 C121.34 56.68, 121.49 59.18, 121.49 61.65" stroke="#000000" stroke-width="4" fill="none"/></g><g stroke-linecap="round" transform="translate(120.52240629877429 67.6013267580064) rotate(1479.7768138102779 16.870089634607098 16.870089634607098)"><path d="M33.74 16.87 C33.74 17.85, 33.65 18.84, 33.48 19.8 C33.31 20.76, 33.06 21.72, 32.72 22.64 C32.39 23.56, 31.97 24.46, 31.48 25.31 C30.99 26.15, 30.42 26.97, 29.79 27.71 C29.17 28.46, 28.46 29.17, 27.71 29.79 C26.97 30.42, 26.15 30.99, 25.31 31.48 C24.46 31.97, 23.56 32.39, 22.64 32.72 C21.72 33.06, 20.76 33.31, 19.8 33.48 C18.84 33.65, 17.85 33.74, 16.87 33.74 C15.89 33.74, 14.9 33.65, 13.94 33.48 C12.98 33.31, 12.02 33.06, 11.1 32.72 C10.18 32.39, 9.28 31.97, 8.44 31.48 C7.59 30.99, 6.77 30.42, 6.03 29.79 C5.28 29.17, 4.57 28.46, 3.95 27.71 C3.32 26.97, 2.75 26.15, 2.26 25.31 C1.77 24.46, 1.35 23.56, 1.02 22.64 C0.68 21.72, 0.43 20.76, 0.26 19.8 C0.09 18.84, 0 17.85, 0 16.87 C0 15.89, 0.09 14.9, 0.26 13.94 C0.43 12.98, 0.68 12.02, 1.02 11.1 C1.35 10.18, 1.77 9.28, 2.26 8.44 C2.75 7.59, 3.32 6.77, 3.95 6.03 C4.57 5.28, 5.28 4.57, 6.03 3.95 C6.77 3.32, 7.59 2.75, 8.44 2.26 C9.28 1.77, 10.18 1.35, 11.1 1.02 C12.02 0.68, 12.98 0.43, 13.94 0.26 C14.9 0.09, 15.89 0, 16.87 0 C17.85 0, 18.84 0.09, 19.8 0.26 C20.76 0.43, 21.72 0.68, 22.64 1.02 C23.56 1.35, 24.46 1.77, 25.31 2.26 C26.15 2.75, 26.97 3.32, 27.71 3.95 C28.46 4.57, 29.17 5.28, 29.79 6.03 C30.42 6.77, 30.99 7.59, 31.48 8.44 C31.97 9.28, 32.39 10.18, 32.72 11.1 C33.06 12.02, 33.31 12.98, 33.48 13.94 C33.65 14.9, 33.7 16.38, 33.74 16.87 C33.78 17.36, 33.78 16.38, 33.74 16.87" stroke="none" stroke-width="0" fill="#82c91e"/><path d="M33.74 16.87 C33.74 17.85, 33.65 18.84, 33.48 19.8 C33.31 20.76, 33.06 21.72, 32.72 22.64 C32.39 23.56, 31.97 24.46, 31.48 25.31 C30.99 26.15, 30.42 26.97, 29.79 27.71 C29.17 28.46, 28.46 29.17, 27.71 29.79 C26.97 30.42, 26.15 30.99, 25.31 31.48 C24.46 31.97, 23.56 32.39, 22.64 32.72 C21.72 33.06, 20.76 33.31, 19.8 33.48 C18.84 33.65, 17.85 33.74, 16.87 33.74 C15.89 33.74, 14.9 33.65, 13.94 33.48 C12.98 33.31, 12.02 33.06, 11.1 32.72 C10.18 32.39, 9.28 31.97, 8.44 31.48 C7.59 30.99, 6.77 30.42, 6.03 29.79 C5.28 29.17, 4.57 28.46, 3.95 27.71 C3.32 26.97, 2.75 26.15, 2.26 25.31 C1.77 24.46, 1.35 23.56, 1.02 22.64 C0.68 21.72, 0.43 20.76, 0.26 19.8 C0.09 18.84, 0 17.85, 0 16.87 C0 15.89, 0.09 14.9, 0.26 13.94 C0.43 12.98, 0.68 12.02, 1.02 11.1 C1.35 10.18, 1.77 9.28, 2.26 8.44 C2.75 7.59, 3.32 6.77, 3.95 6.03 C4.57 5.28, 5.28 4.57, 6.03 3.95 C6.77 3.32, 7.59 2.75, 8.44 2.26 C9.28 1.77, 10.18 1.35, 11.1 1.02 C12.02 0.68, 12.98 0.43, 13.94 0.26 C14.9 0.09, 15.89 0, 16.87 0 C17.85 0, 18.84 0.09, 19.8 0.26 C20.76 0.43, 21.72 0.68, 22.64 1.02 C23.56 1.35, 24.46 1.77, 25.31 2.26 C26.15 2.75, 26.97 3.32, 27.71 3.95 C28.46 4.57, 29.17 5.28, 29.79 6.03 C30.42 6.77, 30.99 7.59, 31.48 8.44 C31.97 9.28, 32.39 10.18, 32.72 11.1 C33.06 12.02, 33.31 12.98, 33.48 13.94 C33.65 14.9, 33.7 16.38, 33.74 16.87 C33.78 17.36, 33.78 16.38, 33.74 16.87" stroke="#000000" stroke-width="2" fill="none"/></g><g stroke-linecap="round" transform="translate(126.44222348226106 46.383953565016895) rotate(1479.7768138102779 8.21953789710605 8.21953789710605)"><path d="M16.44 8.22 C16.44 8.7, 16.4 9.18, 16.31 9.65 C16.23 10.12, 16.11 10.58, 15.94 11.03 C15.78 11.48, 15.58 11.92, 15.34 12.33 C15.1 12.74, 14.82 13.14, 14.52 13.5 C14.21 13.87, 13.87 14.21, 13.5 14.52 C13.14 14.82, 12.74 15.1, 12.33 15.34 C11.92 15.58, 11.48 15.78, 11.03 15.94 C10.58 16.11, 10.12 16.23, 9.65 16.31 C9.18 16.4, 8.7 16.44, 8.22 16.44 C7.74 16.44, 7.26 16.4, 6.79 16.31 C6.32 16.23, 5.86 16.11, 5.41 15.94 C4.96 15.78, 4.52 15.58, 4.11 15.34 C3.7 15.1, 3.3 14.82, 2.94 14.52 C2.57 14.21, 2.23 13.87, 1.92 13.5 C1.62 13.14, 1.34 12.74, 1.1 12.33 C0.86 11.92, 0.66 11.48, 0.5 11.03 C0.33 10.58, 0.21 10.12, 0.12 9.65 C0.04 9.18, 0 8.7, 0 8.22 C0 7.74, 0.04 7.26, 0.12 6.79 C0.21 6.32, 0.33 5.86, 0.5 5.41 C0.66 4.96, 0.86 4.52, 1.1 4.11 C1.34 3.7, 1.62 3.3, 1.92 2.94 C2.23 2.57, 2.57 2.23, 2.94 1.92 C3.3 1.62, 3.7 1.34, 4.11 1.1 C4.52 0.86, 4.96 0.66, 5.41 0.5 C5.86 0.33, 6.32 0.21, 6.79 0.12 C7.26 0.04, 7.74 0, 8.22 0 C8.7 0, 9.18 0.04, 9.65 0.12 C10.12 0.21, 10.58 0.33, 11.03 0.5 C11.48 0.66, 11.92 0.86, 12.33 1.1 C12.74 1.34, 13.14 1.62, 13.5 1.92 C13.87 2.23, 14.21 2.57, 14.52 2.94 C14.82 3.3, 15.1 3.7, 15.34 4.11 C15.58 4.52, 15.78 4.96, 15.94 5.41 C16.11 5.86, 16.23 6.32, 16.31 6.79 C16.4 7.26, 16.42 7.98, 16.44 8.22 C16.46 8.46, 16.46 7.98, 16.44 8.22" stroke="none" stroke-width="0" fill="#82c91e"/><path d="M16.44 8.22 C16.44 8.7, 16.4 9.18, 16.31 9.65 C16.23 10.12, 16.11 10.58, 15.94 11.03 C15.78 11.48, 15.58 11.92, 15.34 12.33 C15.1 12.74, 14.82 13.14, 14.52 13.5 C14.21 13.87, 13.87 14.21, 13.5 14.52 C13.14 14.82, 12.74 15.1, 12.33 15.34 C11.92 15.58, 11.48 15.78, 11.03 15.94 C10.58 16.11, 10.12 16.23, 9.65 16.31 C9.18 16.4, 8.7 16.44, 8.22 16.44 C7.74 16.44, 7.26 16.4, 6.79 16.31 C6.32 16.23, 5.86 16.11, 5.41 15.94 C4.96 15.78, 4.52 15.58, 4.11 15.34 C3.7 15.1, 3.3 14.82, 2.94 14.52 C2.57 14.21, 2.23 13.87, 1.92 13.5 C1.62 13.14, 1.34 12.74, 1.1 12.33 C0.86 11.92, 0.66 11.48, 0.5 11.03 C0.33 10.58, 0.21 10.12, 0.12 9.65 C0.04 9.18, 0 8.7, 0 8.22 C0 7.74, 0.04 7.26, 0.12 6.79 C0.21 6.32, 0.33 5.86, 0.5 5.41 C0.66 4.96, 0.86 4.52, 1.1 4.11 C1.34 3.7, 1.62 3.3, 1.92 2.94 C2.23 2.57, 2.57 2.23, 2.94 1.92 C3.3 1.62, 3.7 1.34, 4.11 1.1 C4.52 0.86, 4.96 0.66, 5.41 0.5 C5.86 0.33, 6.32 0.21, 6.79 0.12 C7.26 0.04, 7.74 0, 8.22 0 C8.7 0, 9.18 0.04, 9.65 0.12 C10.12 0.21, 10.58 0.33, 11.03 0.5 C11.48 0.66, 11.92 0.86, 12.33 1.1 C12.74 1.34, 13.14 1.62, 13.5 1.92 C13.87 2.23, 14.21 2.57, 14.52 2.94 C14.82 3.3, 15.1 3.7, 15.34 4.11 C15.58 4.52, 15.78 4.96, 15.94 5.41 C16.11 5.86, 16.23 6.32, 16.31 6.79 C16.4 7.26, 16.42 7.98, 16.44 8.22 C16.46 8.46, 16.46 7.98, 16.44 8.22" stroke="#000000" stroke-width="2" fill="none"/></g><g stroke-linecap="round" transform="translate(114.03552434472022 29.074378289033007) rotate(1479.7768138102779 8.21953789710605 8.219537897106079)"><path d="M16.44 8.22 C16.44 8.7, 16.4 9.18, 16.31 9.65 C16.23 10.12, 16.11 10.58, 15.94 11.03 C15.78 11.48, 15.58 11.92, 15.34 12.33 C15.1 12.74, 14.82 13.14, 14.52 13.5 C14.21 13.87, 13.87 14.21, 13.5 14.52 C13.14 14.82, 12.74 15.1, 12.33 15.34 C11.92 15.58, 11.48 15.78, 11.03 15.94 C10.58 16.11, 10.12 16.23, 9.65 16.31 C9.18 16.4, 8.7 16.44, 8.22 16.44 C7.74 16.44, 7.26 16.4, 6.79 16.31 C6.32 16.23, 5.86 16.11, 5.41 15.94 C4.96 15.78, 4.52 15.58, 4.11 15.34 C3.7 15.1, 3.3 14.82, 2.94 14.52 C2.57 14.21, 2.23 13.87, 1.92 13.5 C1.62 13.14, 1.34 12.74, 1.1 12.33 C0.86 11.92, 0.66 11.48, 0.5 11.03 C0.33 10.58, 0.21 10.12, 0.12 9.65 C0.04 9.18, 0 8.7, 0 8.22 C0 7.74, 0.04 7.26, 0.12 6.79 C0.21 6.32, 0.33 5.86, 0.5 5.41 C0.66 4.96, 0.86 4.52, 1.1 4.11 C1.34 3.7, 1.62 3.3, 1.92 2.94 C2.23 2.57, 2.57 2.23, 2.94 1.92 C3.3 1.62, 3.7 1.34, 4.11 1.1 C4.52 0.86, 4.96 0.66, 5.41 0.5 C5.86 0.33, 6.32 0.21, 6.79 0.12 C7.26 0.04, 7.74 0, 8.22 0 C8.7 0, 9.18 0.04, 9.65 0.12 C10.12 0.21, 10.58 0.33, 11.03 0.5 C11.48 0.66, 11.92 0.86, 12.33 1.1 C12.74 1.34, 13.14 1.62, 13.5 1.92 C13.87 2.23, 14.21 2.57, 14.52 2.94 C14.82 3.3, 15.1 3.7, 15.34 4.11 C15.58 4.52, 15.78 4.96, 15.94 5.41 C16.11 5.86, 16.23 6.32, 16.31 6.79 C16.4 7.26, 16.42 7.98, 16.44 8.22 C16.46 8.46, 16.46 7.98, 16.44 8.22" stroke="none" stroke-width="0" fill="#82c91e"/><path d="M16.44 8.22 C16.44 8.7, 16.4 9.18, 16.31 9.65 C16.23 10.12, 16.11 10.58, 15.94 11.03 C15.78 11.48, 15.58 11.92, 15.34 12.33 C15.1 12.74, 14.82 13.14, 14.52 13.5 C14.21 13.87, 13.87 14.21, 13.5 14.52 C13.14 14.82, 12.74 15.1, 12.33 15.34 C11.92 15.58, 11.48 15.78, 11.03 15.94 C10.58 16.11, 10.12 16.23, 9.65 16.31 C9.18 16.4, 8.7 16.44, 8.22 16.44 C7.74 16.44, 7.26 16.4, 6.79 16.31 C6.32 16.23, 5.86 16.11, 5.41 15.94 C4.96 15.78, 4.52 15.58, 4.11 15.34 C3.7 15.1, 3.3 14.82, 2.94 14.52 C2.57 14.21, 2.23 13.87, 1.92 13.5 C1.62 13.14, 1.34 12.74, 1.1 12.33 C0.86 11.92, 0.66 11.48, 0.5 11.03 C0.33 10.58, 0.21 10.12, 0.12 9.65 C0.04 9.18, 0 8.7, 0 8.22 C0 7.74, 0.04 7.26, 0.12 6.79 C0.21 6.32, 0.33 5.86, 0.5 5.41 C0.66 4.96, 0.86 4.52, 1.1 4.11 C1.34 3.7, 1.62 3.3, 1.92 2.94 C2.23 2.57, 2.57 2.23, 2.94 1.92 C3.3 1.62, 3.7 1.34, 4.11 1.1 C4.52 0.86, 4.96 0.66, 5.41 0.5 C5.86 0.33, 6.32 0.21, 6.79 0.12 C7.26 0.04, 7.74 0, 8.22 0 C8.7 0, 9.18 0.04, 9.65 0.12 C10.12 0.21, 10.58 0.33, 11.03 0.5 C11.48 0.66, 11.92 0.86, 12.33 1.1 C12.74 1.34, 13.14 1.62, 13.5 1.92 C13.87 2.23, 14.21 2.57, 14.52 2.94 C14.82 3.3, 15.1 3.7, 15.34 4.11 C15.58 4.52, 15.78 4.96, 15.94 5.41 C16.11 5.86, 16.23 6.32, 16.31 6.79 C16.4 7.26, 16.42 7.98, 16.44 8.22 C16.46 8.46, 16.46 7.98, 16.44 8.22" stroke="#000000" stroke-width="2" fill="none"/></g><g stroke-linecap="round" transform="translate(27.063763693601516 110.4175318259413) rotate(1237.0315938760036 16.870089634607098 16.870089634607098)"><path d="M33.74 16.87 C33.74 17.85, 33.65 18.84, 33.48 19.8 C33.31 20.76, 33.06 21.72, 32.72 22.64 C32.39 23.56, 31.97 24.46, 31.48 25.31 C30.99 26.15, 30.42 26.97, 29.79 27.71 C29.17 28.46, 28.46 29.17, 27.71 29.79 C26.97 30.42, 26.15 30.99, 25.31 31.48 C24.46 31.97, 23.56 32.39, 22.64 32.72 C21.72 33.06, 20.76 33.31, 19.8 33.48 C18.84 33.65, 17.85 33.74, 16.87 33.74 C15.89 33.74, 14.9 33.65, 13.94 33.48 C12.98 33.31, 12.02 33.06, 11.1 32.72 C10.18 32.39, 9.28 31.97, 8.44 31.48 C7.59 30.99, 6.77 30.42, 6.03 29.79 C5.28 29.17, 4.57 28.46, 3.95 27.71 C3.32 26.97, 2.75 26.15, 2.26 25.31 C1.77 24.46, 1.35 23.56, 1.02 22.64 C0.68 21.72, 0.43 20.76, 0.26 19.8 C0.09 18.84, 0 17.85, 0 16.87 C0 15.89, 0.09 14.9, 0.26 13.94 C0.43 12.98, 0.68 12.02, 1.02 11.1 C1.35 10.18, 1.77 9.28, 2.26 8.44 C2.75 7.59, 3.32 6.77, 3.95 6.03 C4.57 5.28, 5.28 4.57, 6.03 3.95 C6.77 3.32, 7.59 2.75, 8.44 2.26 C9.28 1.77, 10.18 1.35, 11.1 1.02 C12.02 0.68, 12.98 0.43, 13.94 0.26 C14.9 0.09, 15.89 0, 16.87 0 C17.85 0, 18.84 0.09, 19.8 0.26 C20.76 0.43, 21.72 0.68, 22.64 1.02 C23.56 1.35, 24.46 1.77, 25.31 2.26 C26.15 2.75, 26.97 3.32, 27.71 3.95 C28.46 4.57, 29.17 5.28, 29.79 6.03 C30.42 6.77, 30.99 7.59, 31.48 8.44 C31.97 9.28, 32.39 10.18, 32.72 11.1 C33.06 12.02, 33.31 12.98, 33.48 13.94 C33.65 14.9, 33.7 16.38, 33.74 16.87 C33.78 17.36, 33.78 16.38, 33.74 16.87" stroke="none" stroke-width="0" fill="#228be6"/><path d="M33.74 16.87 C33.74 17.85, 33.65 18.84, 33.48 19.8 C33.31 20.76, 33.06 21.72, 32.72 22.64 C32.39 23.56, 31.97 24.46, 31.48 25.31 C30.99 26.15, 30.42 26.97, 29.79 27.71 C29.17 28.46, 28.46 29.17, 27.71 29.79 C26.97 30.42, 26.15 30.99, 25.31 31.48 C24.46 31.97, 23.56 32.39, 22.64 32.72 C21.72 33.06, 20.76 33.31, 19.8 33.48 C18.84 33.65, 17.85 33.74, 16.87 33.74 C15.89 33.74, 14.9 33.65, 13.94 33.48 C12.98 33.31, 12.02 33.06, 11.1 32.72 C10.18 32.39, 9.28 31.97, 8.44 31.48 C7.59 30.99, 6.77 30.42, 6.03 29.79 C5.28 29.17, 4.57 28.46, 3.95 27.71 C3.32 26.97, 2.75 26.15, 2.26 25.31 C1.77 24.46, 1.35 23.56, 1.02 22.64 C0.68 21.72, 0.43 20.76, 0.26 19.8 C0.09 18.84, 0 17.85, 0 16.87 C0 15.89, 0.09 14.9, 0.26 13.94 C0.43 12.98, 0.68 12.02, 1.02 11.1 C1.35 10.18, 1.77 9.28, 2.26 8.44 C2.75 7.59, 3.32 6.77, 3.95 6.03 C4.57 5.28, 5.28 4.57, 6.03 3.95 C6.77 3.32, 7.59 2.75, 8.44 2.26 C9.28 1.77, 10.18 1.35, 11.1 1.02 C12.02 0.68, 12.98 0.43, 13.94 0.26 C14.9 0.09, 15.89 0, 16.87 0 C17.85 0, 18.84 0.09, 19.8 0.26 C20.76 0.43, 21.72 0.68, 22.64 1.02 C23.56 1.35, 24.46 1.77, 25.31 2.26 C26.15 2.75, 26.97 3.32, 27.71 3.95 C28.46 4.57, 29.17 5.28, 29.79 6.03 C30.42 6.77, 30.99 7.59, 31.48 8.44 C31.97 9.28, 32.39 10.18, 32.72 11.1 C33.06 12.02, 33.31 12.98, 33.48 13.94 C33.65 14.9, 33.7 16.38, 33.74 16.87 C33.78 17.36, 33.78 16.38, 33.74 16.87" stroke="#000000" stroke-width="2" fill="none"/></g><g stroke-linecap="round" transform="translate(63.07211929832391 131.54737958455797) rotate(1237.0315938760036 8.21953789710605 8.21953789710605)"><path d="M16.44 8.22 C16.44 8.7, 16.4 9.18, 16.31 9.65 C16.23 10.12, 16.11 10.58, 15.94 11.03 C15.78 11.48, 15.58 11.92, 15.34 12.33 C15.1 12.74, 14.82 13.14, 14.52 13.5 C14.21 13.87, 13.87 14.21, 13.5 14.52 C13.14 14.82, 12.74 15.1, 12.33 15.34 C11.92 15.58, 11.48 15.78, 11.03 15.94 C10.58 16.11, 10.12 16.23, 9.65 16.31 C9.18 16.4, 8.7 16.44, 8.22 16.44 C7.74 16.44, 7.26 16.4, 6.79 16.31 C6.32 16.23, 5.86 16.11, 5.41 15.94 C4.96 15.78, 4.52 15.58, 4.11 15.34 C3.7 15.1, 3.3 14.82, 2.94 14.52 C2.57 14.21, 2.23 13.87, 1.92 13.5 C1.62 13.14, 1.34 12.74, 1.1 12.33 C0.86 11.92, 0.66 11.48, 0.5 11.03 C0.33 10.58, 0.21 10.12, 0.12 9.65 C0.04 9.18, 0 8.7, 0 8.22 C0 7.74, 0.04 7.26, 0.12 6.79 C0.21 6.32, 0.33 5.86, 0.5 5.41 C0.66 4.96, 0.86 4.52, 1.1 4.11 C1.34 3.7, 1.62 3.3, 1.92 2.94 C2.23 2.57, 2.57 2.23, 2.94 1.92 C3.3 1.62, 3.7 1.34, 4.11 1.1 C4.52 0.86, 4.96 0.66, 5.41 0.5 C5.86 0.33, 6.32 0.21, 6.79 0.12 C7.26 0.04, 7.74 0, 8.22 0 C8.7 0, 9.18 0.04, 9.65 0.12 C10.12 0.21, 10.58 0.33, 11.03 0.5 C11.48 0.66, 11.92 0.86, 12.33 1.1 C12.74 1.34, 13.14 1.62, 13.5 1.92 C13.87 2.23, 14.21 2.57, 14.52 2.94 C14.82 3.3, 15.1 3.7, 15.34 4.11 C15.58 4.52, 15.78 4.96, 15.94 5.41 C16.11 5.86, 16.23 6.32, 16.31 6.79 C16.4 7.26, 16.42 7.98, 16.44 8.22 C16.46 8.46, 16.46 7.98, 16.44 8.22" stroke="none" stroke-width="0" fill="#228be6"/><path d="M16.44 8.22 C16.44 8.7, 16.4 9.18, 16.31 9.65 C16.23 10.12, 16.11 10.58, 15.94 11.03 C15.78 11.48, 15.58 11.92, 15.34 12.33 C15.1 12.74, 14.82 13.14, 14.52 13.5 C14.21 13.87, 13.87 14.21, 13.5 14.52 C13.14 14.82, 12.74 15.1, 12.33 15.34 C11.92 15.58, 11.48 15.78, 11.03 15.94 C10.58 16.11, 10.12 16.23, 9.65 16.31 C9.18 16.4, 8.7 16.44, 8.22 16.44 C7.74 16.44, 7.26 16.4, 6.79 16.31 C6.32 16.23, 5.86 16.11, 5.41 15.94 C4.96 15.78, 4.52 15.58, 4.11 15.34 C3.7 15.1, 3.3 14.82, 2.94 14.52 C2.57 14.21, 2.23 13.87, 1.92 13.5 C1.62 13.14, 1.34 12.74, 1.1 12.33 C0.86 11.92, 0.66 11.48, 0.5 11.03 C0.33 10.58, 0.21 10.12, 0.12 9.65 C0.04 9.18, 0 8.7, 0 8.22 C0 7.74, 0.04 7.26, 0.12 6.79 C0.21 6.32, 0.33 5.86, 0.5 5.41 C0.66 4.96, 0.86 4.52, 1.1 4.11 C1.34 3.7, 1.62 3.3, 1.92 2.94 C2.23 2.57, 2.57 2.23, 2.94 1.92 C3.3 1.62, 3.7 1.34, 4.11 1.1 C4.52 0.86, 4.96 0.66, 5.41 0.5 C5.86 0.33, 6.32 0.21, 6.79 0.12 C7.26 0.04, 7.74 0, 8.22 0 C8.7 0, 9.18 0.04, 9.65 0.12 C10.12 0.21, 10.58 0.33, 11.03 0.5 C11.48 0.66, 11.92 0.86, 12.33 1.1 C12.74 1.34, 13.14 1.62, 13.5 1.92 C13.87 2.23, 14.21 2.57, 14.52 2.94 C14.82 3.3, 15.1 3.7, 15.34 4.11 C15.58 4.52, 15.78 4.96, 15.94 5.41 C16.11 5.86, 16.23 6.32, 16.31 6.79 C16.4 7.26, 16.42 7.98, 16.44 8.22 C16.46 8.46, 16.46 7.98, 16.44 8.22" stroke="#000000" stroke-width="2" fill="none"/></g><g stroke-linecap="round" transform="translate(85.94015596482473 129.2369485670672) rotate(1237.0315938760036 8.21953789710605 8.21953789710605)"><path d="M16.44 8.22 C16.44 8.7, 16.4 9.18, 16.31 9.65 C16.23 10.12, 16.11 10.58, 15.94 11.03 C15.78 11.48, 15.58 11.92, 15.34 12.33 C15.1 12.74, 14.82 13.14, 14.52 13.5 C14.21 13.87, 13.87 14.21, 13.5 14.52 C13.14 14.82, 12.74 15.1, 12.33 15.34 C11.92 15.58, 11.48 15.78, 11.03 15.94 C10.58 16.11, 10.12 16.23, 9.65 16.31 C9.18 16.4, 8.7 16.44, 8.22 16.44 C7.74 16.44, 7.26 16.4, 6.79 16.31 C6.32 16.23, 5.86 16.11, 5.41 15.94 C4.96 15.78, 4.52 15.58, 4.11 15.34 C3.7 15.1, 3.3 14.82, 2.94 14.52 C2.57 14.21, 2.23 13.87, 1.92 13.5 C1.62 13.14, 1.34 12.74, 1.1 12.33 C0.86 11.92, 0.66 11.48, 0.5 11.03 C0.33 10.58, 0.21 10.12, 0.12 9.65 C0.04 9.18, 0 8.7, 0 8.22 C0 7.74, 0.04 7.26, 0.12 6.79 C0.21 6.32, 0.33 5.86, 0.5 5.41 C0.66 4.96, 0.86 4.52, 1.1 4.11 C1.34 3.7, 1.62 3.3, 1.92 2.94 C2.23 2.57, 2.57 2.23, 2.94 1.92 C3.3 1.62, 3.7 1.34, 4.11 1.1 C4.52 0.86, 4.96 0.66, 5.41 0.5 C5.86 0.33, 6.32 0.21, 6.79 0.12 C7.26 0.04, 7.74 0, 8.22 0 C8.7 0, 9.18 0.04, 9.65 0.12 C10.12 0.21, 10.58 0.33, 11.03 0.5 C11.48 0.66, 11.92 0.86, 12.33 1.1 C12.74 1.34, 13.14 1.62, 13.5 1.92 C13.87 2.23, 14.21 2.57, 14.52 2.94 C14.82 3.3, 15.1 3.7, 15.34 4.11 C15.58 4.52, 15.78 4.96, 15.94 5.41 C16.11 5.86, 16.23 6.32, 16.31 6.79 C16.4 7.26, 16.42 7.98, 16.44 8.22 C16.46 8.46, 16.46 7.98, 16.44 8.22" stroke="none" stroke-width="0" fill="#228be6"/><path d="M16.44 8.22 C16.44 8.7, 16.4 9.18, 16.31 9.65 C16.23 10.12, 16.11 10.58, 15.94 11.03 C15.78 11.48, 15.58 11.92, 15.34 12.33 C15.1 12.74, 14.82 13.14, 14.52 13.5 C14.21 13.87, 13.87 14.21, 13.5 14.52 C13.14 14.82, 12.74 15.1, 12.33 15.34 C11.92 15.58, 11.48 15.78, 11.03 15.94 C10.58 16.11, 10.12 16.23, 9.65 16.31 C9.18 16.4, 8.7 16.44, 8.22 16.44 C7.74 16.44, 7.26 16.4, 6.79 16.31 C6.32 16.23, 5.86 16.11, 5.41 15.94 C4.96 15.78, 4.52 15.58, 4.11 15.34 C3.7 15.1, 3.3 14.82, 2.94 14.52 C2.57 14.21, 2.23 13.87, 1.92 13.5 C1.62 13.14, 1.34 12.74, 1.1 12.33 C0.86 11.92, 0.66 11.48, 0.5 11.03 C0.33 10.58, 0.21 10.12, 0.12 9.65 C0.04 9.18, 0 8.7, 0 8.22 C0 7.74, 0.04 7.26, 0.12 6.79 C0.21 6.32, 0.33 5.86, 0.5 5.41 C0.66 4.96, 0.86 4.52, 1.1 4.11 C1.34 3.7, 1.62 3.3, 1.92 2.94 C2.23 2.57, 2.57 2.23, 2.94 1.92 C3.3 1.62, 3.7 1.34, 4.11 1.1 C4.52 0.86, 4.96 0.66, 5.41 0.5 C5.86 0.33, 6.32 0.21, 6.79 0.12 C7.26 0.04, 7.74 0, 8.22 0 C8.7 0, 9.18 0.04, 9.65 0.12 C10.12 0.21, 10.58 0.33, 11.03 0.5 C11.48 0.66, 11.92 0.86, 12.33 1.1 C12.74 1.34, 13.14 1.62, 13.5 1.92 C13.87 2.23, 14.21 2.57, 14.52 2.94 C14.82 3.3, 15.1 3.7, 15.34 4.11 C15.58 4.52, 15.78 4.96, 15.94 5.41 C16.11 5.86, 16.23 6.32, 16.31 6.79 C16.4 7.26, 16.42 7.98, 16.44 8.22 C16.46 8.46, 16.46 7.98, 16.44 8.22" stroke="#000000" stroke-width="2" fill="none"/></g><g stroke-linecap="round" transform="translate(35.69945066081897 10) rotate(1359.7263078525773 16.870089634607098 16.870089634607098)"><path d="M33.74 16.87 C33.74 17.85, 33.65 18.84, 33.48 19.8 C33.31 20.76, 33.06 21.72, 32.72 22.64 C32.39 23.56, 31.97 24.46, 31.48 25.31 C30.99 26.15, 30.42 26.97, 29.79 27.71 C29.17 28.46, 28.46 29.17, 27.71 29.79 C26.97 30.42, 26.15 30.99, 25.31 31.48 C24.46 31.97, 23.56 32.39, 22.64 32.72 C21.72 33.06, 20.76 33.31, 19.8 33.48 C18.84 33.65, 17.85 33.74, 16.87 33.74 C15.89 33.74, 14.9 33.65, 13.94 33.48 C12.98 33.31, 12.02 33.06, 11.1 32.72 C10.18 32.39, 9.28 31.97, 8.44 31.48 C7.59 30.99, 6.77 30.42, 6.03 29.79 C5.28 29.17, 4.57 28.46, 3.95 27.71 C3.32 26.97, 2.75 26.15, 2.26 25.31 C1.77 24.46, 1.35 23.56, 1.02 22.64 C0.68 21.72, 0.43 20.76, 0.26 19.8 C0.09 18.84, 0 17.85, 0 16.87 C0 15.89, 0.09 14.9, 0.26 13.94 C0.43 12.98, 0.68 12.02, 1.02 11.1 C1.35 10.18, 1.77 9.28, 2.26 8.44 C2.75 7.59, 3.32 6.77, 3.95 6.03 C4.57 5.28, 5.28 4.57, 6.03 3.95 C6.77 3.32, 7.59 2.75, 8.44 2.26 C9.28 1.77, 10.18 1.35, 11.1 1.02 C12.02 0.68, 12.98 0.43, 13.94 0.26 C14.9 0.09, 15.89 0, 16.87 0 C17.85 0, 18.84 0.09, 19.8 0.26 C20.76 0.43, 21.72 0.68, 22.64 1.02 C23.56 1.35, 24.46 1.77, 25.31 2.26 C26.15 2.75, 26.97 3.32, 27.71 3.95 C28.46 4.57, 29.17 5.28, 29.79 6.03 C30.42 6.77, 30.99 7.59, 31.48 8.44 C31.97 9.28, 32.39 10.18, 32.72 11.1 C33.06 12.02, 33.31 12.98, 33.48 13.94 C33.65 14.9, 33.7 16.38, 33.74 16.87 C33.78 17.36, 33.78 16.38, 33.74 16.87" stroke="none" stroke-width="0" fill="#c92a2a"/><path d="M33.74 16.87 C33.74 17.85, 33.65 18.84, 33.48 19.8 C33.31 20.76, 33.06 21.72, 32.72 22.64 C32.39 23.56, 31.97 24.46, 31.48 25.31 C30.99 26.15, 30.42 26.97, 29.79 27.71 C29.17 28.46, 28.46 29.17, 27.71 29.79 C26.97 30.42, 26.15 30.99, 25.31 31.48 C24.46 31.97, 23.56 32.39, 22.64 32.72 C21.72 33.06, 20.76 33.31, 19.8 33.48 C18.84 33.65, 17.85 33.74, 16.87 33.74 C15.89 33.74, 14.9 33.65, 13.94 33.48 C12.98 33.31, 12.02 33.06, 11.1 32.72 C10.18 32.39, 9.28 31.97, 8.44 31.48 C7.59 30.99, 6.77 30.42, 6.03 29.79 C5.28 29.17, 4.57 28.46, 3.95 27.71 C3.32 26.97, 2.75 26.15, 2.26 25.31 C1.77 24.46, 1.35 23.56, 1.02 22.64 C0.68 21.72, 0.43 20.76, 0.26 19.8 C0.09 18.84, 0 17.85, 0 16.87 C0 15.89, 0.09 14.9, 0.26 13.94 C0.43 12.98, 0.68 12.02, 1.02 11.1 C1.35 10.18, 1.77 9.28, 2.26 8.44 C2.75 7.59, 3.32 6.77, 3.95 6.03 C4.57 5.28, 5.28 4.57, 6.03 3.95 C6.77 3.32, 7.59 2.75, 8.44 2.26 C9.28 1.77, 10.18 1.35, 11.1 1.02 C12.02 0.68, 12.98 0.43, 13.94 0.26 C14.9 0.09, 15.89 0, 16.87 0 C17.85 0, 18.84 0.09, 19.8 0.26 C20.76 0.43, 21.72 0.68, 22.64 1.02 C23.56 1.35, 24.46 1.77, 25.31 2.26 C26.15 2.75, 26.97 3.32, 27.71 3.95 C28.46 4.57, 29.17 5.28, 29.79 6.03 C30.42 6.77, 30.99 7.59, 31.48 8.44 C31.97 9.28, 32.39 10.18, 32.72 11.1 C33.06 12.02, 33.31 12.98, 33.48 13.94 C33.65 14.9, 33.7 16.38, 33.74 16.87 C33.78 17.36, 33.78 16.38, 33.74 16.87" stroke="#000000" stroke-width="2" fill="none"/></g><g stroke-linecap="round" transform="translate(18.987162047090862 35.566620152926134) rotate(1359.7263078525773 8.21953789710605 8.21953789710605)"><path d="M16.44 8.22 C16.44 8.7, 16.4 9.18, 16.31 9.65 C16.23 10.12, 16.11 10.58, 15.94 11.03 C15.78 11.48, 15.58 11.92, 15.34 12.33 C15.1 12.74, 14.82 13.14, 14.52 13.5 C14.21 13.87, 13.87 14.21, 13.5 14.52 C13.14 14.82, 12.74 15.1, 12.33 15.34 C11.92 15.58, 11.48 15.78, 11.03 15.94 C10.58 16.11, 10.12 16.23, 9.65 16.31 C9.18 16.4, 8.7 16.44, 8.22 16.44 C7.74 16.44, 7.26 16.4, 6.79 16.31 C6.32 16.23, 5.86 16.11, 5.41 15.94 C4.96 15.78, 4.52 15.58, 4.11 15.34 C3.7 15.1, 3.3 14.82, 2.94 14.52 C2.57 14.21, 2.23 13.87, 1.92 13.5 C1.62 13.14, 1.34 12.74, 1.1 12.33 C0.86 11.92, 0.66 11.48, 0.5 11.03 C0.33 10.58, 0.21 10.12, 0.12 9.65 C0.04 9.18, 0 8.7, 0 8.22 C0 7.74, 0.04 7.26, 0.12 6.79 C0.21 6.32, 0.33 5.86, 0.5 5.41 C0.66 4.96, 0.86 4.52, 1.1 4.11 C1.34 3.7, 1.62 3.3, 1.92 2.94 C2.23 2.57, 2.57 2.23, 2.94 1.92 C3.3 1.62, 3.7 1.34, 4.11 1.1 C4.52 0.86, 4.96 0.66, 5.41 0.5 C5.86 0.33, 6.32 0.21, 6.79 0.12 C7.26 0.04, 7.74 0, 8.22 0 C8.7 0, 9.18 0.04, 9.65 0.12 C10.12 0.21, 10.58 0.33, 11.03 0.5 C11.48 0.66, 11.92 0.86, 12.33 1.1 C12.74 1.34, 13.14 1.62, 13.5 1.92 C13.87 2.23, 14.21 2.57, 14.52 2.94 C14.82 3.3, 15.1 3.7, 15.34 4.11 C15.58 4.52, 15.78 4.96, 15.94 5.41 C16.11 5.86, 16.23 6.32, 16.31 6.79 C16.4 7.26, 16.42 7.98, 16.44 8.22 C16.46 8.46, 16.46 7.98, 16.44 8.22" stroke="none" stroke-width="0" fill="#c92a2a"/><path d="M16.44 8.22 C16.44 8.7, 16.4 9.18, 16.31 9.65 C16.23 10.12, 16.11 10.58, 15.94 11.03 C15.78 11.48, 15.58 11.92, 15.34 12.33 C15.1 12.74, 14.82 13.14, 14.52 13.5 C14.21 13.87, 13.87 14.21, 13.5 14.52 C13.14 14.82, 12.74 15.1, 12.33 15.34 C11.92 15.58, 11.48 15.78, 11.03 15.94 C10.58 16.11, 10.12 16.23, 9.65 16.31 C9.18 16.4, 8.7 16.44, 8.22 16.44 C7.74 16.44, 7.26 16.4, 6.79 16.31 C6.32 16.23, 5.86 16.11, 5.41 15.94 C4.96 15.78, 4.52 15.58, 4.11 15.34 C3.7 15.1, 3.3 14.82, 2.94 14.52 C2.57 14.21, 2.23 13.87, 1.92 13.5 C1.62 13.14, 1.34 12.74, 1.1 12.33 C0.86 11.92, 0.66 11.48, 0.5 11.03 C0.33 10.58, 0.21 10.12, 0.12 9.65 C0.04 9.18, 0 8.7, 0 8.22 C0 7.74, 0.04 7.26, 0.12 6.79 C0.21 6.32, 0.33 5.86, 0.5 5.41 C0.66 4.96, 0.86 4.52, 1.1 4.11 C1.34 3.7, 1.62 3.3, 1.92 2.94 C2.23 2.57, 2.57 2.23, 2.94 1.92 C3.3 1.62, 3.7 1.34, 4.11 1.1 C4.52 0.86, 4.96 0.66, 5.41 0.5 C5.86 0.33, 6.32 0.21, 6.79 0.12 C7.26 0.04, 7.74 0, 8.22 0 C8.7 0, 9.18 0.04, 9.65 0.12 C10.12 0.21, 10.58 0.33, 11.03 0.5 C11.48 0.66, 11.92 0.86, 12.33 1.1 C12.74 1.34, 13.14 1.62, 13.5 1.92 C13.87 2.23, 14.21 2.57, 14.52 2.94 C14.82 3.3, 15.1 3.7, 15.34 4.11 C15.58 4.52, 15.78 4.96, 15.94 5.41 C16.11 5.86, 16.23 6.32, 16.31 6.79 C16.4 7.26, 16.42 7.98, 16.44 8.22 C16.46 8.46, 16.46 7.98, 16.44 8.22" stroke="#000000" stroke-width="2" fill="none"/></g><g stroke-linecap="round" transform="translate(10.000000000000057 55.44451952832793) rotate(1359.7263078525773 8.21953789710605 8.21953789710605)"><path d="M16.44 8.22 C16.44 8.7, 16.4 9.18, 16.31 9.65 C16.23 10.12, 16.11 10.58, 15.94 11.03 C15.78 11.48, 15.58 11.92, 15.34 12.33 C15.1 12.74, 14.82 13.14, 14.52 13.5 C14.21 13.87, 13.87 14.21, 13.5 14.52 C13.14 14.82, 12.74 15.1, 12.33 15.34 C11.92 15.58, 11.48 15.78, 11.03 15.94 C10.58 16.11, 10.12 16.23, 9.65 16.31 C9.18 16.4, 8.7 16.44, 8.22 16.44 C7.74 16.44, 7.26 16.4, 6.79 16.31 C6.32 16.23, 5.86 16.11, 5.41 15.94 C4.96 15.78, 4.52 15.58, 4.11 15.34 C3.7 15.1, 3.3 14.82, 2.94 14.52 C2.57 14.21, 2.23 13.87, 1.92 13.5 C1.62 13.14, 1.34 12.74, 1.1 12.33 C0.86 11.92, 0.66 11.48, 0.5 11.03 C0.33 10.58, 0.21 10.12, 0.12 9.65 C0.04 9.18, 0 8.7, 0 8.22 C0 7.74, 0.04 7.26, 0.12 6.79 C0.21 6.32, 0.33 5.86, 0.5 5.41 C0.66 4.96, 0.86 4.52, 1.1 4.11 C1.34 3.7, 1.62 3.3, 1.92 2.94 C2.23 2.57, 2.57 2.23, 2.94 1.92 C3.3 1.62, 3.7 1.34, 4.11 1.1 C4.52 0.86, 4.96 0.66, 5.41 0.5 C5.86 0.33, 6.32 0.21, 6.79 0.12 C7.26 0.04, 7.74 0, 8.22 0 C8.7 0, 9.18 0.04, 9.65 0.12 C10.12 0.21, 10.58 0.33, 11.03 0.5 C11.48 0.66, 11.92 0.86, 12.33 1.1 C12.74 1.34, 13.14 1.62, 13.5 1.92 C13.87 2.23, 14.21 2.57, 14.52 2.94 C14.82 3.3, 15.1 3.7, 15.34 4.11 C15.58 4.52, 15.78 4.96, 15.94 5.41 C16.11 5.86, 16.23 6.32, 16.31 6.79 C16.4 7.26, 16.42 7.98, 16.44 8.22 C16.46 8.46, 16.46 7.98, 16.44 8.22" stroke="none" stroke-width="0" fill="#c92a2a"/><path d="M16.44 8.22 C16.44 8.7, 16.4 9.18, 16.31 9.65 C16.23 10.12, 16.11 10.58, 15.94 11.03 C15.78 11.48, 15.58 11.92, 15.34 12.33 C15.1 12.74, 14.82 13.14, 14.52 13.5 C14.21 13.87, 13.87 14.21, 13.5 14.52 C13.14 14.82, 12.74 15.1, 12.33 15.34 C11.92 15.58, 11.48 15.78, 11.03 15.94 C10.58 16.11, 10.12 16.23, 9.65 16.31 C9.18 16.4, 8.7 16.44, 8.22 16.44 C7.74 16.44, 7.26 16.4, 6.79 16.31 C6.32 16.23, 5.86 16.11, 5.41 15.94 C4.96 15.78, 4.52 15.58, 4.11 15.34 C3.7 15.1, 3.3 14.82, 2.94 14.52 C2.57 14.21, 2.23 13.87, 1.92 13.5 C1.62 13.14, 1.34 12.74, 1.1 12.33 C0.86 11.92, 0.66 11.48, 0.5 11.03 C0.33 10.58, 0.21 10.12, 0.12 9.65 C0.04 9.18, 0 8.7, 0 8.22 C0 7.74, 0.04 7.26, 0.12 6.79 C0.21 6.32, 0.33 5.86, 0.5 5.41 C0.66 4.96, 0.86 4.52, 1.1 4.11 C1.34 3.7, 1.62 3.3, 1.92 2.94 C2.23 2.57, 2.57 2.23, 2.94 1.92 C3.3 1.62, 3.7 1.34, 4.11 1.1 C4.52 0.86, 4.96 0.66, 5.41 0.5 C5.86 0.33, 6.32 0.21, 6.79 0.12 C7.26 0.04, 7.74 0, 8.22 0 C8.7 0, 9.18 0.04, 9.65 0.12 C10.12 0.21, 10.58 0.33, 11.03 0.5 C11.48 0.66, 11.92 0.86, 12.33 1.1 C12.74 1.34, 13.14 1.62, 13.5 1.92 C13.87 2.23, 14.21 2.57, 14.52 2.94 C14.82 3.3, 15.1 3.7, 15.34 4.11 C15.58 4.52, 15.78 4.96, 15.94 5.41 C16.11 5.86, 16.23 6.32, 16.31 6.79 C16.4 7.26, 16.42 7.98, 16.44 8.22 C16.46 8.46, 16.46 7.98, 16.44 8.22" stroke="#000000" stroke-width="2" fill="none"/></g><g stroke-linecap="round" transform="translate(55.38984032118367 44.78614561676318) rotate(0 22.114754098360663 35.5)"><path d="M28.31 9 L40.66 29.99 L42.9 35.97 L40.66 41.84 L28.31 62.25 L25.15 67.17 L22.94 68.81 L19.16 65.12 L5.75 44.75 L2.52 39.55 L1.44 35.97 L3.86 29.99 L21.88 2.67 L23.99 2.67 L28.31 9" stroke="none" stroke-width="0" fill="#fd7e14"/><path d="M28.31 9 M28.31 9 C32.16 15.53, 36.01 22.06, 38.92 27 M28.31 9 C30.83 13.28, 33.36 17.57, 38.92 27 M38.92 27 C44.23 36, 44.23 36, 38.92 44.75 M38.92 27 C44.23 36, 44.23 36, 38.92 44.75 M38.92 44.75 C36.62 48.55, 34.31 52.35, 28.31 62.25 M38.92 44.75 C34.76 51.61, 30.6 58.48, 28.31 62.25 M28.31 62.25 C23 71, 23 71, 17.25 62.25 M28.31 62.25 C23 71, 23 71, 17.25 62.25 M17.25 62.25 C13.54 56.61, 9.83 50.96, 5.75 44.75 M17.25 62.25 C13.69 56.84, 10.14 51.43, 5.75 44.75 M5.75 44.75 C0 36, 0 36, 5.75 27 M5.75 44.75 C0 36, 0 36, 5.75 27 M5.75 27 C9.7 20.82, 13.65 14.64, 17.25 9 M5.75 27 C8.29 23.02, 10.84 19.04, 17.25 9 M17.25 9 C23 0, 23 0, 28.31 9 M17.25 9 C23 0, 23 0, 28.31 9" stroke="#000" stroke-width="2" fill="none"/></g></svg>