<svg version="1.1" xmlns="http://www.w3.org/2000/svg" viewBox="0 0 171.06946622074764 175.2319764496774" width="171.06946622074764" height="175.2319764496774">
  <!-- svg-source:excalidraw -->
  
  <defs>
    <style>
      @font-face {
        font-family: "Virgil";
        src: url("https://unpkg.com/@zsviczian/excalidraw@0.11.0-obsidian-18/dist/excalidraw-assets/Virgil.woff2");
      }
      @font-face {
        font-family: "Cascadia";
        src: url("https://unpkg.com/@zsviczian/excalidraw@0.11.0-obsidian-18/dist/excalidraw-assets/Cascadia.woff2");
      }
    </style>
  </defs>
  <rect x="0" y="0" width="171.06946622074764" height="175.2319764496774" fill="#ffffff"/><g stroke-linecap="round" transform="translate(18.010056021449486 14.99310686890658) rotate(0 68.59873451894276 69.62259622818081)"><path d="M137.2 69.62 C137.2 72.22, 137.05 74.84, 136.77 77.42 C136.48 80, 136.05 82.58, 135.48 85.12 C134.91 87.65, 134.19 90.16, 133.35 92.62 C132.5 95.07, 131.51 97.49, 130.4 99.83 C129.29 102.17, 128.05 104.46, 126.68 106.66 C125.32 108.86, 123.83 111, 122.23 113.03 C120.64 115.06, 118.92 117.02, 117.11 118.85 C115.3 120.69, 113.37 122.44, 111.37 124.06 C109.37 125.68, 107.26 127.19, 105.1 128.57 C102.93 129.96, 100.67 131.22, 98.36 132.35 C96.06 133.48, 93.67 134.48, 91.26 135.34 C88.84 136.2, 86.36 136.92, 83.86 137.5 C81.37 138.08, 78.82 138.52, 76.28 138.81 C73.74 139.1, 71.16 139.25, 68.6 139.25 C66.04 139.25, 63.46 139.1, 60.92 138.81 C58.37 138.52, 55.83 138.08, 53.33 137.5 C50.84 136.92, 48.36 136.2, 45.94 135.34 C43.53 134.48, 41.14 133.48, 38.83 132.35 C36.53 131.22, 34.27 129.96, 32.1 128.57 C29.93 127.19, 27.83 125.68, 25.83 124.06 C23.83 122.44, 21.9 120.69, 20.09 118.85 C18.28 117.02, 16.56 115.06, 14.97 113.03 C13.37 111, 11.88 108.86, 10.51 106.66 C9.15 104.46, 7.9 102.17, 6.79 99.83 C5.68 97.49, 4.7 95.07, 3.85 92.62 C3 90.16, 2.29 87.65, 1.72 85.12 C1.15 82.58, 0.72 80, 0.43 77.42 C0.14 74.84, 0 72.22, 0 69.62 C0 67.02, 0.14 64.41, 0.43 61.83 C0.72 59.25, 1.15 56.66, 1.72 54.13 C2.29 51.6, 3 49.08, 3.85 46.63 C4.7 44.18, 5.68 41.76, 6.79 39.41 C7.9 37.07, 9.15 34.78, 10.51 32.58 C11.88 30.38, 13.37 28.25, 14.97 26.21 C16.56 24.18, 18.28 22.23, 20.09 20.39 C21.9 18.55, 23.83 16.81, 25.83 15.19 C27.83 13.57, 29.93 12.05, 32.1 10.67 C34.27 9.29, 36.53 8.02, 38.83 6.89 C41.14 5.77, 43.53 4.77, 45.94 3.91 C48.36 3.05, 50.84 2.32, 53.33 1.75 C55.83 1.17, 58.37 0.73, 60.92 0.44 C63.46 0.15, 66.04 0, 68.6 0 C71.16 0, 73.74 0.15, 76.28 0.44 C78.82 0.73, 81.37 1.17, 83.86 1.75 C86.36 2.32, 88.84 3.05, 91.26 3.91 C93.67 4.77, 96.06 5.77, 98.36 6.89 C100.67 8.02, 102.93 9.29, 105.1 10.67 C107.26 12.05, 109.37 13.57, 111.37 15.19 C113.37 16.81, 115.3 18.55, 117.11 20.39 C118.92 22.23, 120.64 24.18, 122.23 26.21 C123.83 28.25, 125.32 30.38, 126.68 32.58 C128.05 34.78, 129.29 37.07, 130.4 39.41 C131.51 41.76, 132.5 44.18, 133.35 46.63 C134.19 49.08, 134.91 51.6, 135.48 54.13 C136.05 56.66, 136.48 59.25, 136.77 61.83 C137.05 64.41, 137.13 68.32, 137.2 69.62 C137.27 70.92, 137.27 68.32, 137.2 69.62" stroke="#000000" stroke-width="4" fill="none"/></g><g stroke-linecap="round" transform="translate(20.518366811317378 40.92265339012283) rotate(0 7.865988224838759 7.865988224838759)"><path d="M15.73 7.87 C15.73 8.32, 15.69 8.78, 15.61 9.23 C15.53 9.68, 15.41 10.13, 15.26 10.56 C15.1 10.98, 14.91 11.4, 14.68 11.8 C14.45 12.19, 14.18 12.57, 13.89 12.92 C13.6 13.27, 13.27 13.6, 12.92 13.89 C12.57 14.18, 12.19 14.45, 11.8 14.68 C11.4 14.91, 10.98 15.1, 10.56 15.26 C10.13 15.41, 9.68 15.53, 9.23 15.61 C8.78 15.69, 8.32 15.73, 7.87 15.73 C7.41 15.73, 6.95 15.69, 6.5 15.61 C6.05 15.53, 5.6 15.41, 5.18 15.26 C4.75 15.1, 4.33 14.91, 3.93 14.68 C3.54 14.45, 3.16 14.18, 2.81 13.89 C2.46 13.6, 2.13 13.27, 1.84 12.92 C1.55 12.57, 1.28 12.19, 1.05 11.8 C0.83 11.4, 0.63 10.98, 0.47 10.56 C0.32 10.13, 0.2 9.68, 0.12 9.23 C0.04 8.78, 0 8.32, 0 7.87 C0 7.41, 0.04 6.95, 0.12 6.5 C0.2 6.05, 0.32 5.6, 0.47 5.18 C0.63 4.75, 0.83 4.33, 1.05 3.93 C1.28 3.54, 1.55 3.16, 1.84 2.81 C2.13 2.46, 2.46 2.13, 2.81 1.84 C3.16 1.55, 3.54 1.28, 3.93 1.05 C4.33 0.83, 4.75 0.63, 5.18 0.47 C5.6 0.32, 6.05 0.2, 6.5 0.12 C6.95 0.04, 7.41 0, 7.87 0 C8.32 0, 8.78 0.04, 9.23 0.12 C9.68 0.2, 10.13 0.32, 10.56 0.47 C10.98 0.63, 11.4 0.83, 11.8 1.05 C12.19 1.28, 12.57 1.55, 12.92 1.84 C13.27 2.13, 13.6 2.46, 13.89 2.81 C14.18 3.16, 14.45 3.54, 14.68 3.93 C14.91 4.33, 15.1 4.75, 15.26 5.18 C15.41 5.6, 15.53 6.05, 15.61 6.5 C15.69 6.95, 15.71 7.64, 15.73 7.87 C15.75 8.09, 15.75 7.64, 15.73 7.87" stroke="none" stroke-width="0" fill="#c92a2a"/><path d="M15.73 7.87 C15.73 8.32, 15.69 8.78, 15.61 9.23 C15.53 9.68, 15.41 10.13, 15.26 10.56 C15.1 10.98, 14.91 11.4, 14.68 11.8 C14.45 12.19, 14.18 12.57, 13.89 12.92 C13.6 13.27, 13.27 13.6, 12.92 13.89 C12.57 14.18, 12.19 14.45, 11.8 14.68 C11.4 14.91, 10.98 15.1, 10.56 15.26 C10.13 15.41, 9.68 15.53, 9.23 15.61 C8.78 15.69, 8.32 15.73, 7.87 15.73 C7.41 15.73, 6.95 15.69, 6.5 15.61 C6.05 15.53, 5.6 15.41, 5.18 15.26 C4.75 15.1, 4.33 14.91, 3.93 14.68 C3.54 14.45, 3.16 14.18, 2.81 13.89 C2.46 13.6, 2.13 13.27, 1.84 12.92 C1.55 12.57, 1.28 12.19, 1.05 11.8 C0.83 11.4, 0.63 10.98, 0.47 10.56 C0.32 10.13, 0.2 9.68, 0.12 9.23 C0.04 8.78, 0 8.32, 0 7.87 C0 7.41, 0.04 6.95, 0.12 6.5 C0.2 6.05, 0.32 5.6, 0.47 5.18 C0.63 4.75, 0.83 4.33, 1.05 3.93 C1.28 3.54, 1.55 3.16, 1.84 2.81 C2.13 2.46, 2.46 2.13, 2.81 1.84 C3.16 1.55, 3.54 1.28, 3.93 1.05 C4.33 0.83, 4.75 0.63, 5.18 0.47 C5.6 0.32, 6.05 0.2, 6.5 0.12 C6.95 0.04, 7.41 0, 7.87 0 C8.32 0, 8.78 0.04, 9.23 0.12 C9.68 0.2, 10.13 0.32, 10.56 0.47 C10.98 0.63, 11.4 0.83, 11.8 1.05 C12.19 1.28, 12.57 1.55, 12.92 1.84 C13.27 2.13, 13.6 2.46, 13.89 2.81 C14.18 3.16, 14.45 3.54, 14.68 3.93 C14.91 4.33, 15.1 4.75, 15.26 5.18 C15.41 5.6, 15.53 6.05, 15.61 6.5 C15.69 6.95, 15.71 7.64, 15.73 7.87 C15.75 8.09, 15.75 7.64, 15.73 7.87" stroke="#000" stroke-width="2" fill="none"/></g><g stroke-linecap="round" transform="translate(130.33748977107012 34.86176227548515) rotate(0 15.365988224838759 15.365988224838759)"><path d="M30.73 15.37 C30.73 16.26, 30.65 17.16, 30.5 18.03 C30.34 18.91, 30.11 19.79, 29.81 20.62 C29.5 21.46, 29.12 22.28, 28.67 23.05 C28.23 23.82, 27.71 24.56, 27.14 25.24 C26.57 25.92, 25.92 26.57, 25.24 27.14 C24.56 27.71, 23.82 28.23, 23.05 28.67 C22.28 29.12, 21.46 29.5, 20.62 29.81 C19.79 30.11, 18.91 30.34, 18.03 30.5 C17.16 30.65, 16.26 30.73, 15.37 30.73 C14.48 30.73, 13.57 30.65, 12.7 30.5 C11.82 30.34, 10.95 30.11, 10.11 29.81 C9.27 29.5, 8.45 29.12, 7.68 28.67 C6.91 28.23, 6.17 27.71, 5.49 27.14 C4.81 26.57, 4.17 25.92, 3.59 25.24 C3.02 24.56, 2.5 23.82, 2.06 23.05 C1.61 22.28, 1.23 21.46, 0.93 20.62 C0.62 19.79, 0.39 18.91, 0.23 18.03 C0.08 17.16, 0 16.26, 0 15.37 C0 14.48, 0.08 13.57, 0.23 12.7 C0.39 11.82, 0.62 10.95, 0.93 10.11 C1.23 9.27, 1.61 8.45, 2.06 7.68 C2.5 6.91, 3.02 6.17, 3.59 5.49 C4.17 4.81, 4.81 4.17, 5.49 3.59 C6.17 3.02, 6.91 2.5, 7.68 2.06 C8.45 1.61, 9.27 1.23, 10.11 0.93 C10.95 0.62, 11.82 0.39, 12.7 0.23 C13.57 0.08, 14.48 0, 15.37 0 C16.26 0, 17.16 0.08, 18.03 0.23 C18.91 0.39, 19.79 0.62, 20.62 0.93 C21.46 1.23, 22.28 1.61, 23.05 2.06 C23.82 2.5, 24.56 3.02, 25.24 3.59 C25.92 4.17, 26.57 4.81, 27.14 5.49 C27.71 6.17, 28.23 6.91, 28.67 7.68 C29.12 8.45, 29.5 9.27, 29.81 10.11 C30.11 10.95, 30.34 11.82, 30.5 12.7 C30.65 13.57, 30.69 14.92, 30.73 15.37 C30.77 15.81, 30.77 14.92, 30.73 15.37" stroke="none" stroke-width="0" fill="#82c91e"/><path d="M30.73 15.37 C30.73 16.26, 30.65 17.16, 30.5 18.03 C30.34 18.91, 30.11 19.79, 29.81 20.62 C29.5 21.46, 29.12 22.28, 28.67 23.05 C28.23 23.82, 27.71 24.56, 27.14 25.24 C26.57 25.92, 25.92 26.57, 25.24 27.14 C24.56 27.71, 23.82 28.23, 23.05 28.67 C22.28 29.12, 21.46 29.5, 20.62 29.81 C19.79 30.11, 18.91 30.34, 18.03 30.5 C17.16 30.65, 16.26 30.73, 15.37 30.73 C14.48 30.73, 13.57 30.65, 12.7 30.5 C11.82 30.34, 10.95 30.11, 10.11 29.81 C9.27 29.5, 8.45 29.12, 7.68 28.67 C6.91 28.23, 6.17 27.71, 5.49 27.14 C4.81 26.57, 4.17 25.92, 3.59 25.24 C3.02 24.56, 2.5 23.82, 2.06 23.05 C1.61 22.28, 1.23 21.46, 0.93 20.62 C0.62 19.79, 0.39 18.91, 0.23 18.03 C0.08 17.16, 0 16.26, 0 15.37 C0 14.48, 0.08 13.57, 0.23 12.7 C0.39 11.82, 0.62 10.95, 0.93 10.11 C1.23 9.27, 1.61 8.45, 2.06 7.68 C2.5 6.91, 3.02 6.17, 3.59 5.49 C4.17 4.81, 4.81 4.17, 5.49 3.59 C6.17 3.02, 6.91 2.5, 7.68 2.06 C8.45 1.61, 9.27 1.23, 10.11 0.93 C10.95 0.62, 11.82 0.39, 12.7 0.23 C13.57 0.08, 14.48 0, 15.37 0 C16.26 0, 17.16 0.08, 18.03 0.23 C18.91 0.39, 19.79 0.62, 20.62 0.93 C21.46 1.23, 22.28 1.61, 23.05 2.06 C23.82 2.5, 24.56 3.02, 25.24 3.59 C25.92 4.17, 26.57 4.81, 27.14 5.49 C27.71 6.17, 28.23 6.91, 28.67 7.68 C29.12 8.45, 29.5 9.27, 29.81 10.11 C30.11 10.95, 30.34 11.82, 30.5 12.7 C30.65 13.57, 30.69 14.92, 30.73 15.37 C30.77 15.81, 30.77 14.92, 30.73 15.37" stroke="#000000" stroke-width="2" fill="none"/></g><g stroke-linecap="round" transform="translate(102.92066245832893 141.71706064328998) rotate(0 7.865988224838759 7.865988224838759)"><path d="M15.73 7.87 C15.73 8.32, 15.69 8.78, 15.61 9.23 C15.53 9.68, 15.41 10.13, 15.26 10.56 C15.1 10.98, 14.91 11.4, 14.68 11.8 C14.45 12.19, 14.18 12.57, 13.89 12.92 C13.6 13.27, 13.27 13.6, 12.92 13.89 C12.57 14.18, 12.19 14.45, 11.8 14.68 C11.4 14.91, 10.98 15.1, 10.56 15.26 C10.13 15.41, 9.68 15.53, 9.23 15.61 C8.78 15.69, 8.32 15.73, 7.87 15.73 C7.41 15.73, 6.95 15.69, 6.5 15.61 C6.05 15.53, 5.6 15.41, 5.18 15.26 C4.75 15.1, 4.33 14.91, 3.93 14.68 C3.54 14.45, 3.16 14.18, 2.81 13.89 C2.46 13.6, 2.13 13.27, 1.84 12.92 C1.55 12.57, 1.28 12.19, 1.05 11.8 C0.83 11.4, 0.63 10.98, 0.47 10.56 C0.32 10.13, 0.2 9.68, 0.12 9.23 C0.04 8.78, 0 8.32, 0 7.87 C0 7.41, 0.04 6.95, 0.12 6.5 C0.2 6.05, 0.32 5.6, 0.47 5.18 C0.63 4.75, 0.83 4.33, 1.05 3.93 C1.28 3.54, 1.55 3.16, 1.84 2.81 C2.13 2.46, 2.46 2.13, 2.81 1.84 C3.16 1.55, 3.54 1.28, 3.93 1.05 C4.33 0.83, 4.75 0.63, 5.18 0.47 C5.6 0.32, 6.05 0.2, 6.5 0.12 C6.95 0.04, 7.41 0, 7.87 0 C8.32 0, 8.78 0.04, 9.23 0.12 C9.68 0.2, 10.13 0.32, 10.56 0.47 C10.98 0.63, 11.4 0.83, 11.8 1.05 C12.19 1.28, 12.57 1.55, 12.92 1.84 C13.27 2.13, 13.6 2.46, 13.89 2.81 C14.18 3.16, 14.45 3.54, 14.68 3.93 C14.91 4.33, 15.1 4.75, 15.26 5.18 C15.41 5.6, 15.53 6.05, 15.61 6.5 C15.69 6.95, 15.71 7.64, 15.73 7.87 C15.75 8.09, 15.75 7.64, 15.73 7.87" stroke="none" stroke-width="0" fill="#228be6"/><path d="M15.73 7.87 C15.73 8.32, 15.69 8.78, 15.61 9.23 C15.53 9.68, 15.41 10.13, 15.26 10.56 C15.1 10.98, 14.91 11.4, 14.68 11.8 C14.45 12.19, 14.18 12.57, 13.89 12.92 C13.6 13.27, 13.27 13.6, 12.92 13.89 C12.57 14.18, 12.19 14.45, 11.8 14.68 C11.4 14.91, 10.98 15.1, 10.56 15.26 C10.13 15.41, 9.68 15.53, 9.23 15.61 C8.78 15.69, 8.32 15.73, 7.87 15.73 C7.41 15.73, 6.95 15.69, 6.5 15.61 C6.05 15.53, 5.6 15.41, 5.18 15.26 C4.75 15.1, 4.33 14.91, 3.93 14.68 C3.54 14.45, 3.16 14.18, 2.81 13.89 C2.46 13.6, 2.13 13.27, 1.84 12.92 C1.55 12.57, 1.28 12.19, 1.05 11.8 C0.83 11.4, 0.63 10.98, 0.47 10.56 C0.32 10.13, 0.2 9.68, 0.12 9.23 C0.04 8.78, 0 8.32, 0 7.87 C0 7.41, 0.04 6.95, 0.12 6.5 C0.2 6.05, 0.32 5.6, 0.47 5.18 C0.63 4.75, 0.83 4.33, 1.05 3.93 C1.28 3.54, 1.55 3.16, 1.84 2.81 C2.13 2.46, 2.46 2.13, 2.81 1.84 C3.16 1.55, 3.54 1.28, 3.93 1.05 C4.33 0.83, 4.75 0.63, 5.18 0.47 C5.6 0.32, 6.05 0.2, 6.5 0.12 C6.95 0.04, 7.41 0, 7.87 0 C8.32 0, 8.78 0.04, 9.23 0.12 C9.68 0.2, 10.13 0.32, 10.56 0.47 C10.98 0.63, 11.4 0.83, 11.8 1.05 C12.19 1.28, 12.57 1.55, 12.92 1.84 C13.27 2.13, 13.6 2.46, 13.89 2.81 C14.18 3.16, 14.45 3.54, 14.68 3.93 C14.91 4.33, 15.1 4.75, 15.26 5.18 C15.41 5.6, 15.53 6.05, 15.61 6.5 C15.69 6.95, 15.71 7.64, 15.73 7.87 C15.75 8.09, 15.75 7.64, 15.73 7.87" stroke="#000000" stroke-width="2" fill="none"/></g><g stroke-linecap="round" transform="translate(64.50000000000006 134.4999999999999) rotate(0 15.365988224838759 15.365988224838759)"><path d="M30.73 15.37 C30.73 16.26, 30.65 17.16, 30.5 18.03 C30.34 18.91, 30.11 19.79, 29.81 20.62 C29.5 21.46, 29.12 22.28, 28.67 23.05 C28.23 23.82, 27.71 24.56, 27.14 25.24 C26.57 25.92, 25.92 26.57, 25.24 27.14 C24.56 27.71, 23.82 28.23, 23.05 28.67 C22.28 29.12, 21.46 29.5, 20.62 29.81 C19.79 30.11, 18.91 30.34, 18.03 30.5 C17.16 30.65, 16.26 30.73, 15.37 30.73 C14.48 30.73, 13.57 30.65, 12.7 30.5 C11.82 30.34, 10.95 30.11, 10.11 29.81 C9.27 29.5, 8.45 29.12, 7.68 28.67 C6.91 28.23, 6.17 27.71, 5.49 27.14 C4.81 26.57, 4.17 25.92, 3.59 25.24 C3.02 24.56, 2.5 23.82, 2.06 23.05 C1.61 22.28, 1.23 21.46, 0.93 20.62 C0.62 19.79, 0.39 18.91, 0.23 18.03 C0.08 17.16, 0 16.26, 0 15.37 C0 14.48, 0.08 13.57, 0.23 12.7 C0.39 11.82, 0.62 10.95, 0.93 10.11 C1.23 9.27, 1.61 8.45, 2.06 7.68 C2.5 6.91, 3.02 6.17, 3.59 5.49 C4.17 4.81, 4.81 4.17, 5.49 3.59 C6.17 3.02, 6.91 2.5, 7.68 2.06 C8.45 1.61, 9.27 1.23, 10.11 0.93 C10.95 0.62, 11.82 0.39, 12.7 0.23 C13.57 0.08, 14.48 0, 15.37 0 C16.26 0, 17.16 0.08, 18.03 0.23 C18.91 0.39, 19.79 0.62, 20.62 0.93 C21.46 1.23, 22.28 1.61, 23.05 2.06 C23.82 2.5, 24.56 3.02, 25.24 3.59 C25.92 4.17, 26.57 4.81, 27.14 5.49 C27.71 6.17, 28.23 6.91, 28.67 7.68 C29.12 8.45, 29.5 9.27, 29.81 10.11 C30.11 10.95, 30.34 11.82, 30.5 12.7 C30.65 13.57, 30.69 14.92, 30.73 15.37 C30.77 15.81, 30.77 14.92, 30.73 15.37" stroke="none" stroke-width="0" fill="#228be6"/><path d="M30.73 15.37 C30.73 16.26, 30.65 17.16, 30.5 18.03 C30.34 18.91, 30.11 19.79, 29.81 20.62 C29.5 21.46, 29.12 22.28, 28.67 23.05 C28.23 23.82, 27.71 24.56, 27.14 25.24 C26.57 25.92, 25.92 26.57, 25.24 27.14 C24.56 27.71, 23.82 28.23, 23.05 28.67 C22.28 29.12, 21.46 29.5, 20.62 29.81 C19.79 30.11, 18.91 30.34, 18.03 30.5 C17.16 30.65, 16.26 30.73, 15.37 30.73 C14.48 30.73, 13.57 30.65, 12.7 30.5 C11.82 30.34, 10.95 30.11, 10.11 29.81 C9.27 29.5, 8.45 29.12, 7.68 28.67 C6.91 28.23, 6.17 27.71, 5.49 27.14 C4.81 26.57, 4.17 25.92, 3.59 25.24 C3.02 24.56, 2.5 23.82, 2.06 23.05 C1.61 22.28, 1.23 21.46, 0.93 20.62 C0.62 19.79, 0.39 18.91, 0.23 18.03 C0.08 17.16, 0 16.26, 0 15.37 C0 14.48, 0.08 13.57, 0.23 12.7 C0.39 11.82, 0.62 10.95, 0.93 10.11 C1.23 9.27, 1.61 8.45, 2.06 7.68 C2.5 6.91, 3.02 6.17, 3.59 5.49 C4.17 4.81, 4.81 4.17, 5.49 3.59 C6.17 3.02, 6.91 2.5, 7.68 2.06 C8.45 1.61, 9.27 1.23, 10.11 0.93 C10.95 0.62, 11.82 0.39, 12.7 0.23 C13.57 0.08, 14.48 0, 15.37 0 C16.26 0, 17.16 0.08, 18.03 0.23 C18.91 0.39, 19.79 0.62, 20.62 0.93 C21.46 1.23, 22.28 1.61, 23.05 2.06 C23.82 2.5, 24.56 3.02, 25.24 3.59 C25.92 4.17, 26.57 4.81, 27.14 5.49 C27.71 6.17, 28.23 6.91, 28.67 7.68 C29.12 8.45, 29.5 9.27, 29.81 10.11 C30.11 10.95, 30.34 11.82, 30.5 12.7 C30.65 13.57, 30.69 14.92, 30.73 15.37 C30.77 15.81, 30.77 14.92, 30.73 15.37" stroke="#000000" stroke-width="2" fill="none"/></g><g stroke-linecap="round" transform="translate(14.500000000000057 32.499999999999886) rotate(0 15.365988224838759 15.365988224838759)"><path d="M30.73 15.37 C30.73 16.26, 30.65 17.16, 30.5 18.03 C30.34 18.91, 30.11 19.79, 29.81 20.62 C29.5 21.46, 29.12 22.28, 28.67 23.05 C28.23 23.82, 27.71 24.56, 27.14 25.24 C26.57 25.92, 25.92 26.57, 25.24 27.14 C24.56 27.71, 23.82 28.23, 23.05 28.67 C22.28 29.12, 21.46 29.5, 20.62 29.81 C19.79 30.11, 18.91 30.34, 18.03 30.5 C17.16 30.65, 16.26 30.73, 15.37 30.73 C14.48 30.73, 13.57 30.65, 12.7 30.5 C11.82 30.34, 10.95 30.11, 10.11 29.81 C9.27 29.5, 8.45 29.12, 7.68 28.67 C6.91 28.23, 6.17 27.71, 5.49 27.14 C4.81 26.57, 4.17 25.92, 3.59 25.24 C3.02 24.56, 2.5 23.82, 2.06 23.05 C1.61 22.28, 1.23 21.46, 0.93 20.62 C0.62 19.79, 0.39 18.91, 0.23 18.03 C0.08 17.16, 0 16.26, 0 15.37 C0 14.48, 0.08 13.57, 0.23 12.7 C0.39 11.82, 0.62 10.95, 0.93 10.11 C1.23 9.27, 1.61 8.45, 2.06 7.68 C2.5 6.91, 3.02 6.17, 3.59 5.49 C4.17 4.81, 4.81 4.17, 5.49 3.59 C6.17 3.02, 6.91 2.5, 7.68 2.06 C8.45 1.61, 9.27 1.23, 10.11 0.93 C10.95 0.62, 11.82 0.39, 12.7 0.23 C13.57 0.08, 14.48 0, 15.37 0 C16.26 0, 17.16 0.08, 18.03 0.23 C18.91 0.39, 19.79 0.62, 20.62 0.93 C21.46 1.23, 22.28 1.61, 23.05 2.06 C23.82 2.5, 24.56 3.02, 25.24 3.59 C25.92 4.17, 26.57 4.81, 27.14 5.49 C27.71 6.17, 28.23 6.91, 28.67 7.68 C29.12 8.45, 29.5 9.27, 29.81 10.11 C30.11 10.95, 30.34 11.82, 30.5 12.7 C30.65 13.57, 30.69 14.92, 30.73 15.37 C30.77 15.81, 30.77 14.92, 30.73 15.37" stroke="none" stroke-width="0" fill="#c92a2a"/><path d="M30.73 15.37 C30.73 16.26, 30.65 17.16, 30.5 18.03 C30.34 18.91, 30.11 19.79, 29.81 20.62 C29.5 21.46, 29.12 22.28, 28.67 23.05 C28.23 23.82, 27.71 24.56, 27.14 25.24 C26.57 25.92, 25.92 26.57, 25.24 27.14 C24.56 27.71, 23.82 28.23, 23.05 28.67 C22.28 29.12, 21.46 29.5, 20.62 29.81 C19.79 30.11, 18.91 30.34, 18.03 30.5 C17.16 30.65, 16.26 30.73, 15.37 30.73 C14.48 30.73, 13.57 30.65, 12.7 30.5 C11.82 30.34, 10.95 30.11, 10.11 29.81 C9.27 29.5, 8.45 29.12, 7.68 28.67 C6.91 28.23, 6.17 27.71, 5.49 27.14 C4.81 26.57, 4.17 25.92, 3.59 25.24 C3.02 24.56, 2.5 23.82, 2.06 23.05 C1.61 22.28, 1.23 21.46, 0.93 20.62 C0.62 19.79, 0.39 18.91, 0.23 18.03 C0.08 17.16, 0 16.26, 0 15.37 C0 14.48, 0.08 13.57, 0.23 12.7 C0.39 11.82, 0.62 10.95, 0.93 10.11 C1.23 9.27, 1.61 8.45, 2.06 7.68 C2.5 6.91, 3.02 6.17, 3.59 5.49 C4.17 4.81, 4.81 4.17, 5.49 3.59 C6.17 3.02, 6.91 2.5, 7.68 2.06 C8.45 1.61, 9.27 1.23, 10.11 0.93 C10.95 0.62, 11.82 0.39, 12.7 0.23 C13.57 0.08, 14.48 0, 15.37 0 C16.26 0, 17.16 0.08, 18.03 0.23 C18.91 0.39, 19.79 0.62, 20.62 0.93 C21.46 1.23, 22.28 1.61, 23.05 2.06 C23.82 2.5, 24.56 3.02, 25.24 3.59 C25.92 4.17, 26.57 4.81, 27.14 5.49 C27.71 6.17, 28.23 6.91, 28.67 7.68 C29.12 8.45, 29.5 9.27, 29.81 10.11 C30.11 10.95, 30.34 11.82, 30.5 12.7 C30.65 13.57, 30.69 14.92, 30.73 15.37 C30.77 15.81, 30.77 14.92, 30.73 15.37" stroke="#000000" stroke-width="2" fill="none"/></g><g stroke-linecap="round" transform="translate(10 68.99999999999989) rotate(0 7.865988224838759 7.865988224838759)"><path d="M15.73 7.87 C15.73 8.32, 15.69 8.78, 15.61 9.23 C15.53 9.68, 15.41 10.13, 15.26 10.56 C15.1 10.98, 14.91 11.4, 14.68 11.8 C14.45 12.19, 14.18 12.57, 13.89 12.92 C13.6 13.27, 13.27 13.6, 12.92 13.89 C12.57 14.18, 12.19 14.45, 11.8 14.68 C11.4 14.91, 10.98 15.1, 10.56 15.26 C10.13 15.41, 9.68 15.53, 9.23 15.61 C8.78 15.69, 8.32 15.73, 7.87 15.73 C7.41 15.73, 6.95 15.69, 6.5 15.61 C6.05 15.53, 5.6 15.41, 5.18 15.26 C4.75 15.1, 4.33 14.91, 3.93 14.68 C3.54 14.45, 3.16 14.18, 2.81 13.89 C2.46 13.6, 2.13 13.27, 1.84 12.92 C1.55 12.57, 1.28 12.19, 1.05 11.8 C0.83 11.4, 0.63 10.98, 0.47 10.56 C0.32 10.13, 0.2 9.68, 0.12 9.23 C0.04 8.78, 0 8.32, 0 7.87 C0 7.41, 0.04 6.95, 0.12 6.5 C0.2 6.05, 0.32 5.6, 0.47 5.18 C0.63 4.75, 0.83 4.33, 1.05 3.93 C1.28 3.54, 1.55 3.16, 1.84 2.81 C2.13 2.46, 2.46 2.13, 2.81 1.84 C3.16 1.55, 3.54 1.28, 3.93 1.05 C4.33 0.83, 4.75 0.63, 5.18 0.47 C5.6 0.32, 6.05 0.2, 6.5 0.12 C6.95 0.04, 7.41 0, 7.87 0 C8.32 0, 8.78 0.04, 9.23 0.12 C9.68 0.2, 10.13 0.32, 10.56 0.47 C10.98 0.63, 11.4 0.83, 11.8 1.05 C12.19 1.28, 12.57 1.55, 12.92 1.84 C13.27 2.13, 13.6 2.46, 13.89 2.81 C14.18 3.16, 14.45 3.54, 14.68 3.93 C14.91 4.33, 15.1 4.75, 15.26 5.18 C15.41 5.6, 15.53 6.05, 15.61 6.5 C15.69 6.95, 15.71 7.64, 15.73 7.87 C15.75 8.09, 15.75 7.64, 15.73 7.87" stroke="none" stroke-width="0" fill="#c92a2a"/><path d="M15.73 7.87 C15.73 8.32, 15.69 8.78, 15.61 9.23 C15.53 9.68, 15.41 10.13, 15.26 10.56 C15.1 10.98, 14.91 11.4, 14.68 11.8 C14.45 12.19, 14.18 12.57, 13.89 12.92 C13.6 13.27, 13.27 13.6, 12.92 13.89 C12.57 14.18, 12.19 14.45, 11.8 14.68 C11.4 14.91, 10.98 15.1, 10.56 15.26 C10.13 15.41, 9.68 15.53, 9.23 15.61 C8.78 15.69, 8.32 15.73, 7.87 15.73 C7.41 15.73, 6.95 15.69, 6.5 15.61 C6.05 15.53, 5.6 15.41, 5.18 15.26 C4.75 15.1, 4.33 14.91, 3.93 14.68 C3.54 14.45, 3.16 14.18, 2.81 13.89 C2.46 13.6, 2.13 13.27, 1.84 12.92 C1.55 12.57, 1.28 12.19, 1.05 11.8 C0.83 11.4, 0.63 10.98, 0.47 10.56 C0.32 10.13, 0.2 9.68, 0.12 9.23 C0.04 8.78, 0 8.32, 0 7.87 C0 7.41, 0.04 6.95, 0.12 6.5 C0.2 6.05, 0.32 5.6, 0.47 5.18 C0.63 4.75, 0.83 4.33, 1.05 3.93 C1.28 3.54, 1.55 3.16, 1.84 2.81 C2.13 2.46, 2.46 2.13, 2.81 1.84 C3.16 1.55, 3.54 1.28, 3.93 1.05 C4.33 0.83, 4.75 0.63, 5.18 0.47 C5.6 0.32, 6.05 0.2, 6.5 0.12 C6.95 0.04, 7.41 0, 7.87 0 C8.32 0, 8.78 0.04, 9.23 0.12 C9.68 0.2, 10.13 0.32, 10.56 0.47 C10.98 0.63, 11.4 0.83, 11.8 1.05 C12.19 1.28, 12.57 1.55, 12.92 1.84 C13.27 2.13, 13.6 2.46, 13.89 2.81 C14.18 3.16, 14.45 3.54, 14.68 3.93 C14.91 4.33, 15.1 4.75, 15.26 5.18 C15.41 5.6, 15.53 6.05, 15.61 6.5 C15.69 6.95, 15.71 7.64, 15.73 7.87 C15.75 8.09, 15.75 7.64, 15.73 7.87" stroke="#000000" stroke-width="2" fill="none"/></g><g stroke-linecap="round" transform="translate(118 17.999999999999773) rotate(0 7.865988224838759 7.865988224838759)"><path d="M15.73 7.87 C15.73 8.32, 15.69 8.78, 15.61 9.23 C15.53 9.68, 15.41 10.13, 15.26 10.56 C15.1 10.98, 14.91 11.4, 14.68 11.8 C14.45 12.19, 14.18 12.57, 13.89 12.92 C13.6 13.27, 13.27 13.6, 12.92 13.89 C12.57 14.18, 12.19 14.45, 11.8 14.68 C11.4 14.91, 10.98 15.1, 10.56 15.26 C10.13 15.41, 9.68 15.53, 9.23 15.61 C8.78 15.69, 8.32 15.73, 7.87 15.73 C7.41 15.73, 6.95 15.69, 6.5 15.61 C6.05 15.53, 5.6 15.41, 5.18 15.26 C4.75 15.1, 4.33 14.91, 3.93 14.68 C3.54 14.45, 3.16 14.18, 2.81 13.89 C2.46 13.6, 2.13 13.27, 1.84 12.92 C1.55 12.57, 1.28 12.19, 1.05 11.8 C0.83 11.4, 0.63 10.98, 0.47 10.56 C0.32 10.13, 0.2 9.68, 0.12 9.23 C0.04 8.78, 0 8.32, 0 7.87 C0 7.41, 0.04 6.95, 0.12 6.5 C0.2 6.05, 0.32 5.6, 0.47 5.18 C0.63 4.75, 0.83 4.33, 1.05 3.93 C1.28 3.54, 1.55 3.16, 1.84 2.81 C2.13 2.46, 2.46 2.13, 2.81 1.84 C3.16 1.55, 3.54 1.28, 3.93 1.05 C4.33 0.83, 4.75 0.63, 5.18 0.47 C5.6 0.32, 6.05 0.2, 6.5 0.12 C6.95 0.04, 7.41 0, 7.87 0 C8.32 0, 8.78 0.04, 9.23 0.12 C9.68 0.2, 10.13 0.32, 10.56 0.47 C10.98 0.63, 11.4 0.83, 11.8 1.05 C12.19 1.28, 12.57 1.55, 12.92 1.84 C13.27 2.13, 13.6 2.46, 13.89 2.81 C14.18 3.16, 14.45 3.54, 14.68 3.93 C14.91 4.33, 15.1 4.75, 15.26 5.18 C15.41 5.6, 15.53 6.05, 15.61 6.5 C15.69 6.95, 15.71 7.64, 15.73 7.87 C15.75 8.09, 15.75 7.64, 15.73 7.87" stroke="none" stroke-width="0" fill="#82c91e"/><path d="M15.73 7.87 C15.73 8.32, 15.69 8.78, 15.61 9.23 C15.53 9.68, 15.41 10.13, 15.26 10.56 C15.1 10.98, 14.91 11.4, 14.68 11.8 C14.45 12.19, 14.18 12.57, 13.89 12.92 C13.6 13.27, 13.27 13.6, 12.92 13.89 C12.57 14.18, 12.19 14.45, 11.8 14.68 C11.4 14.91, 10.98 15.1, 10.56 15.26 C10.13 15.41, 9.68 15.53, 9.23 15.61 C8.78 15.69, 8.32 15.73, 7.87 15.73 C7.41 15.73, 6.95 15.69, 6.5 15.61 C6.05 15.53, 5.6 15.41, 5.18 15.26 C4.75 15.1, 4.33 14.91, 3.93 14.68 C3.54 14.45, 3.16 14.18, 2.81 13.89 C2.46 13.6, 2.13 13.27, 1.84 12.92 C1.55 12.57, 1.28 12.19, 1.05 11.8 C0.83 11.4, 0.63 10.98, 0.47 10.56 C0.32 10.13, 0.2 9.68, 0.12 9.23 C0.04 8.78, 0 8.32, 0 7.87 C0 7.41, 0.04 6.95, 0.12 6.5 C0.2 6.05, 0.32 5.6, 0.47 5.18 C0.63 4.75, 0.83 4.33, 1.05 3.93 C1.28 3.54, 1.55 3.16, 1.84 2.81 C2.13 2.46, 2.46 2.13, 2.81 1.84 C3.16 1.55, 3.54 1.28, 3.93 1.05 C4.33 0.83, 4.75 0.63, 5.18 0.47 C5.6 0.32, 6.05 0.2, 6.5 0.12 C6.95 0.04, 7.41 0, 7.87 0 C8.32 0, 8.78 0.04, 9.23 0.12 C9.68 0.2, 10.13 0.32, 10.56 0.47 C10.98 0.63, 11.4 0.83, 11.8 1.05 C12.19 1.28, 12.57 1.55, 12.92 1.84 C13.27 2.13, 13.6 2.46, 13.89 2.81 C14.18 3.16, 14.45 3.54, 14.68 3.93 C14.91 4.33, 15.1 4.75, 15.26 5.18 C15.41 5.6, 15.53 6.05, 15.61 6.5 C15.69 6.95, 15.71 7.64, 15.73 7.87 C15.75 8.09, 15.75 7.64, 15.73 7.87" stroke="#000000" stroke-width="2" fill="none"/></g><g stroke-linecap="round" transform="translate(123 128.9999999999999) rotate(0 7.865988224838759 7.865988224838759)"><path d="M15.73 7.87 C15.73 8.32, 15.69 8.78, 15.61 9.23 C15.53 9.68, 15.41 10.13, 15.26 10.56 C15.1 10.98, 14.91 11.4, 14.68 11.8 C14.45 12.19, 14.18 12.57, 13.89 12.92 C13.6 13.27, 13.27 13.6, 12.92 13.89 C12.57 14.18, 12.19 14.45, 11.8 14.68 C11.4 14.91, 10.98 15.1, 10.56 15.26 C10.13 15.41, 9.68 15.53, 9.23 15.61 C8.78 15.69, 8.32 15.73, 7.87 15.73 C7.41 15.73, 6.95 15.69, 6.5 15.61 C6.05 15.53, 5.6 15.41, 5.18 15.26 C4.75 15.1, 4.33 14.91, 3.93 14.68 C3.54 14.45, 3.16 14.18, 2.81 13.89 C2.46 13.6, 2.13 13.27, 1.84 12.92 C1.55 12.57, 1.28 12.19, 1.05 11.8 C0.83 11.4, 0.63 10.98, 0.47 10.56 C0.32 10.13, 0.2 9.68, 0.12 9.23 C0.04 8.78, 0 8.32, 0 7.87 C0 7.41, 0.04 6.95, 0.12 6.5 C0.2 6.05, 0.32 5.6, 0.47 5.18 C0.63 4.75, 0.83 4.33, 1.05 3.93 C1.28 3.54, 1.55 3.16, 1.84 2.81 C2.13 2.46, 2.46 2.13, 2.81 1.84 C3.16 1.55, 3.54 1.28, 3.93 1.05 C4.33 0.83, 4.75 0.63, 5.18 0.47 C5.6 0.32, 6.05 0.2, 6.5 0.12 C6.95 0.04, 7.41 0, 7.87 0 C8.32 0, 8.78 0.04, 9.23 0.12 C9.68 0.2, 10.13 0.32, 10.56 0.47 C10.98 0.63, 11.4 0.83, 11.8 1.05 C12.19 1.28, 12.57 1.55, 12.92 1.84 C13.27 2.13, 13.6 2.46, 13.89 2.81 C14.18 3.16, 14.45 3.54, 14.68 3.93 C14.91 4.33, 15.1 4.75, 15.26 5.18 C15.41 5.6, 15.53 6.05, 15.61 6.5 C15.69 6.95, 15.71 7.64, 15.73 7.87 C15.75 8.09, 15.75 7.64, 15.73 7.87" stroke="none" stroke-width="0" fill="#228be6"/><path d="M15.73 7.87 C15.73 8.32, 15.69 8.78, 15.61 9.23 C15.53 9.68, 15.41 10.13, 15.26 10.56 C15.1 10.98, 14.91 11.4, 14.68 11.8 C14.45 12.19, 14.18 12.57, 13.89 12.92 C13.6 13.27, 13.27 13.6, 12.92 13.89 C12.57 14.18, 12.19 14.45, 11.8 14.68 C11.4 14.91, 10.98 15.1, 10.56 15.26 C10.13 15.41, 9.68 15.53, 9.23 15.61 C8.78 15.69, 8.32 15.73, 7.87 15.73 C7.41 15.73, 6.95 15.69, 6.5 15.61 C6.05 15.53, 5.6 15.41, 5.18 15.26 C4.75 15.1, 4.33 14.91, 3.93 14.68 C3.54 14.45, 3.16 14.18, 2.81 13.89 C2.46 13.6, 2.13 13.27, 1.84 12.92 C1.55 12.57, 1.28 12.19, 1.05 11.8 C0.83 11.4, 0.63 10.98, 0.47 10.56 C0.32 10.13, 0.2 9.68, 0.12 9.23 C0.04 8.78, 0 8.32, 0 7.87 C0 7.41, 0.04 6.95, 0.12 6.5 C0.2 6.05, 0.32 5.6, 0.47 5.18 C0.63 4.75, 0.83 4.33, 1.05 3.93 C1.28 3.54, 1.55 3.16, 1.84 2.81 C2.13 2.46, 2.46 2.13, 2.81 1.84 C3.16 1.55, 3.54 1.28, 3.93 1.05 C4.33 0.83, 4.75 0.63, 5.18 0.47 C5.6 0.32, 6.05 0.2, 6.5 0.12 C6.95 0.04, 7.41 0, 7.87 0 C8.32 0, 8.78 0.04, 9.23 0.12 C9.68 0.2, 10.13 0.32, 10.56 0.47 C10.98 0.63, 11.4 0.83, 11.8 1.05 C12.19 1.28, 12.57 1.55, 12.92 1.84 C13.27 2.13, 13.6 2.46, 13.89 2.81 C14.18 3.16, 14.45 3.54, 14.68 3.93 C14.91 4.33, 15.1 4.75, 15.26 5.18 C15.41 5.6, 15.53 6.05, 15.61 6.5 C15.69 6.95, 15.71 7.64, 15.73 7.87 C15.75 8.09, 15.75 7.64, 15.73 7.87" stroke="#000000" stroke-width="2" fill="none"/></g><g stroke-linecap="round" transform="translate(96 10) rotate(0 7.865988224838759 7.865988224838759)"><path d="M15.73 7.87 C15.73 8.32, 15.69 8.78, 15.61 9.23 C15.53 9.68, 15.41 10.13, 15.26 10.56 C15.1 10.98, 14.91 11.4, 14.68 11.8 C14.45 12.19, 14.18 12.57, 13.89 12.92 C13.6 13.27, 13.27 13.6, 12.92 13.89 C12.57 14.18, 12.19 14.45, 11.8 14.68 C11.4 14.91, 10.98 15.1, 10.56 15.26 C10.13 15.41, 9.68 15.53, 9.23 15.61 C8.78 15.69, 8.32 15.73, 7.87 15.73 C7.41 15.73, 6.95 15.69, 6.5 15.61 C6.05 15.53, 5.6 15.41, 5.18 15.26 C4.75 15.1, 4.33 14.91, 3.93 14.68 C3.54 14.45, 3.16 14.18, 2.81 13.89 C2.46 13.6, 2.13 13.27, 1.84 12.92 C1.55 12.57, 1.28 12.19, 1.05 11.8 C0.83 11.4, 0.63 10.98, 0.47 10.56 C0.32 10.13, 0.2 9.68, 0.12 9.23 C0.04 8.78, 0 8.32, 0 7.87 C0 7.41, 0.04 6.95, 0.12 6.5 C0.2 6.05, 0.32 5.6, 0.47 5.18 C0.63 4.75, 0.83 4.33, 1.05 3.93 C1.28 3.54, 1.55 3.16, 1.84 2.81 C2.13 2.46, 2.46 2.13, 2.81 1.84 C3.16 1.55, 3.54 1.28, 3.93 1.05 C4.33 0.83, 4.75 0.63, 5.18 0.47 C5.6 0.32, 6.05 0.2, 6.5 0.12 C6.95 0.04, 7.41 0, 7.87 0 C8.32 0, 8.78 0.04, 9.23 0.12 C9.68 0.2, 10.13 0.32, 10.56 0.47 C10.98 0.63, 11.4 0.83, 11.8 1.05 C12.19 1.28, 12.57 1.55, 12.92 1.84 C13.27 2.13, 13.6 2.46, 13.89 2.81 C14.18 3.16, 14.45 3.54, 14.68 3.93 C14.91 4.33, 15.1 4.75, 15.26 5.18 C15.41 5.6, 15.53 6.05, 15.61 6.5 C15.69 6.95, 15.71 7.64, 15.73 7.87 C15.75 8.09, 15.75 7.64, 15.73 7.87" stroke="none" stroke-width="0" fill="#82c91e"/><path d="M15.73 7.87 C15.73 8.32, 15.69 8.78, 15.61 9.23 C15.53 9.68, 15.41 10.13, 15.26 10.56 C15.1 10.98, 14.91 11.4, 14.68 11.8 C14.45 12.19, 14.18 12.57, 13.89 12.92 C13.6 13.27, 13.27 13.6, 12.92 13.89 C12.57 14.18, 12.19 14.45, 11.8 14.68 C11.4 14.91, 10.98 15.1, 10.56 15.26 C10.13 15.41, 9.68 15.53, 9.23 15.61 C8.78 15.69, 8.32 15.73, 7.87 15.73 C7.41 15.73, 6.95 15.69, 6.5 15.61 C6.05 15.53, 5.6 15.41, 5.18 15.26 C4.75 15.1, 4.33 14.91, 3.93 14.68 C3.54 14.45, 3.16 14.18, 2.81 13.89 C2.46 13.6, 2.13 13.27, 1.84 12.92 C1.55 12.57, 1.28 12.19, 1.05 11.8 C0.83 11.4, 0.63 10.98, 0.47 10.56 C0.32 10.13, 0.2 9.68, 0.12 9.23 C0.04 8.78, 0 8.32, 0 7.87 C0 7.41, 0.04 6.95, 0.12 6.5 C0.2 6.05, 0.32 5.6, 0.47 5.18 C0.63 4.75, 0.83 4.33, 1.05 3.93 C1.28 3.54, 1.55 3.16, 1.84 2.81 C2.13 2.46, 2.46 2.13, 2.81 1.84 C3.16 1.55, 3.54 1.28, 3.93 1.05 C4.33 0.83, 4.75 0.63, 5.18 0.47 C5.6 0.32, 6.05 0.2, 6.5 0.12 C6.95 0.04, 7.41 0, 7.87 0 C8.32 0, 8.78 0.04, 9.23 0.12 C9.68 0.2, 10.13 0.32, 10.56 0.47 C10.98 0.63, 11.4 0.83, 11.8 1.05 C12.19 1.28, 12.57 1.55, 12.92 1.84 C13.27 2.13, 13.6 2.46, 13.89 2.81 C14.18 3.16, 14.45 3.54, 14.68 3.93 C14.91 4.33, 15.1 4.75, 15.26 5.18 C15.41 5.6, 15.53 6.05, 15.61 6.5 C15.69 6.95, 15.71 7.64, 15.73 7.87 C15.75 8.09, 15.75 7.64, 15.73 7.87" stroke="#000000" stroke-width="2" fill="none"/></g><g stroke-linecap="round" transform="translate(12 92.99999999999989) rotate(0 7.865988224838759 7.865988224838759)"><path d="M15.73 7.87 C15.73 8.32, 15.69 8.78, 15.61 9.23 C15.53 9.68, 15.41 10.13, 15.26 10.56 C15.1 10.98, 14.91 11.4, 14.68 11.8 C14.45 12.19, 14.18 12.57, 13.89 12.92 C13.6 13.27, 13.27 13.6, 12.92 13.89 C12.57 14.18, 12.19 14.45, 11.8 14.68 C11.4 14.91, 10.98 15.1, 10.56 15.26 C10.13 15.41, 9.68 15.53, 9.23 15.61 C8.78 15.69, 8.32 15.73, 7.87 15.73 C7.41 15.73, 6.95 15.69, 6.5 15.61 C6.05 15.53, 5.6 15.41, 5.18 15.26 C4.75 15.1, 4.33 14.91, 3.93 14.68 C3.54 14.45, 3.16 14.18, 2.81 13.89 C2.46 13.6, 2.13 13.27, 1.84 12.92 C1.55 12.57, 1.28 12.19, 1.05 11.8 C0.83 11.4, 0.63 10.98, 0.47 10.56 C0.32 10.13, 0.2 9.68, 0.12 9.23 C0.04 8.78, 0 8.32, 0 7.87 C0 7.41, 0.04 6.95, 0.12 6.5 C0.2 6.05, 0.32 5.6, 0.47 5.18 C0.63 4.75, 0.83 4.33, 1.05 3.93 C1.28 3.54, 1.55 3.16, 1.84 2.81 C2.13 2.46, 2.46 2.13, 2.81 1.84 C3.16 1.55, 3.54 1.28, 3.93 1.05 C4.33 0.83, 4.75 0.63, 5.18 0.47 C5.6 0.32, 6.05 0.2, 6.5 0.12 C6.95 0.04, 7.41 0, 7.87 0 C8.32 0, 8.78 0.04, 9.23 0.12 C9.68 0.2, 10.13 0.32, 10.56 0.47 C10.98 0.63, 11.4 0.83, 11.8 1.05 C12.19 1.28, 12.57 1.55, 12.92 1.84 C13.27 2.13, 13.6 2.46, 13.89 2.81 C14.18 3.16, 14.45 3.54, 14.68 3.93 C14.91 4.33, 15.1 4.75, 15.26 5.18 C15.41 5.6, 15.53 6.05, 15.61 6.5 C15.69 6.95, 15.71 7.64, 15.73 7.87 C15.75 8.09, 15.75 7.64, 15.73 7.87" stroke="none" stroke-width="0" fill="#c92a2a"/><path d="M15.73 7.87 C15.73 8.32, 15.69 8.78, 15.61 9.23 C15.53 9.68, 15.41 10.13, 15.26 10.56 C15.1 10.98, 14.91 11.4, 14.68 11.8 C14.45 12.19, 14.18 12.57, 13.89 12.92 C13.6 13.27, 13.27 13.6, 12.92 13.89 C12.57 14.18, 12.19 14.45, 11.8 14.68 C11.4 14.91, 10.98 15.1, 10.56 15.26 C10.13 15.41, 9.68 15.53, 9.23 15.61 C8.78 15.69, 8.32 15.73, 7.87 15.73 C7.41 15.73, 6.95 15.69, 6.5 15.61 C6.05 15.53, 5.6 15.41, 5.18 15.26 C4.75 15.1, 4.33 14.91, 3.93 14.68 C3.54 14.45, 3.16 14.18, 2.81 13.89 C2.46 13.6, 2.13 13.27, 1.84 12.92 C1.55 12.57, 1.28 12.19, 1.05 11.8 C0.83 11.4, 0.63 10.98, 0.47 10.56 C0.32 10.13, 0.2 9.68, 0.12 9.23 C0.04 8.78, 0 8.32, 0 7.87 C0 7.41, 0.04 6.95, 0.12 6.5 C0.2 6.05, 0.32 5.6, 0.47 5.18 C0.63 4.75, 0.83 4.33, 1.05 3.93 C1.28 3.54, 1.55 3.16, 1.84 2.81 C2.13 2.46, 2.46 2.13, 2.81 1.84 C3.16 1.55, 3.54 1.28, 3.93 1.05 C4.33 0.83, 4.75 0.63, 5.18 0.47 C5.6 0.32, 6.05 0.2, 6.5 0.12 C6.95 0.04, 7.41 0, 7.87 0 C8.32 0, 8.78 0.04, 9.23 0.12 C9.68 0.2, 10.13 0.32, 10.56 0.47 C10.98 0.63, 11.4 0.83, 11.8 1.05 C12.19 1.28, 12.57 1.55, 12.92 1.84 C13.27 2.13, 13.6 2.46, 13.89 2.81 C14.18 3.16, 14.45 3.54, 14.68 3.93 C14.91 4.33, 15.1 4.75, 15.26 5.18 C15.41 5.6, 15.53 6.05, 15.61 6.5 C15.69 6.95, 15.71 7.64, 15.73 7.87 C15.75 8.09, 15.75 7.64, 15.73 7.87" stroke="#000000" stroke-width="2" fill="none"/></g><g stroke-linecap="round" transform="translate(68.86598822483882 67.8659882248387) rotate(0 18 18)"><path d="M36 18 C36 19.04, 35.91 20.1, 35.73 21.13 C35.55 22.15, 35.27 23.18, 34.91 24.16 C34.56 25.14, 34.11 26.1, 33.59 27 C33.07 27.9, 32.46 28.77, 31.79 29.57 C31.12 30.37, 30.37 31.12, 29.57 31.79 C28.77 32.46, 27.9 33.07, 27 33.59 C26.1 34.11, 25.14 34.56, 24.16 34.91 C23.18 35.27, 22.15 35.55, 21.13 35.73 C20.1 35.91, 19.04 36, 18 36 C16.96 36, 15.9 35.91, 14.87 35.73 C13.85 35.55, 12.82 35.27, 11.84 34.91 C10.86 34.56, 9.9 34.11, 9 33.59 C8.1 33.07, 7.23 32.46, 6.43 31.79 C5.63 31.12, 4.88 30.37, 4.21 29.57 C3.54 28.77, 2.93 27.9, 2.41 27 C1.89 26.1, 1.44 25.14, 1.09 24.16 C0.73 23.18, 0.45 22.15, 0.27 21.13 C0.09 20.1, 0 19.04, 0 18 C0 16.96, 0.09 15.9, 0.27 14.87 C0.45 13.85, 0.73 12.82, 1.09 11.84 C1.44 10.86, 1.89 9.9, 2.41 9 C2.93 8.1, 3.54 7.23, 4.21 6.43 C4.88 5.63, 5.63 4.88, 6.43 4.21 C7.23 3.54, 8.1 2.93, 9 2.41 C9.9 1.89, 10.86 1.44, 11.84 1.09 C12.82 0.73, 13.85 0.45, 14.87 0.27 C15.9 0.09, 16.96 0, 18 0 C19.04 0, 20.1 0.09, 21.13 0.27 C22.15 0.45, 23.18 0.73, 24.16 1.09 C25.14 1.44, 26.1 1.89, 27 2.41 C27.9 2.93, 28.77 3.54, 29.57 4.21 C30.37 4.88, 31.12 5.63, 31.79 6.43 C32.46 7.23, 33.07 8.1, 33.59 9 C34.11 9.9, 34.56 10.86, 34.91 11.84 C35.27 12.82, 35.55 13.85, 35.73 14.87 C35.91 15.9, 35.95 17.48, 36 18 C36.05 18.52, 36.05 17.48, 36 18" stroke="none" stroke-width="0" fill="#fab005"/><path d="M36 18 C36 19.04, 35.91 20.1, 35.73 21.13 C35.55 22.15, 35.27 23.18, 34.91 24.16 C34.56 25.14, 34.11 26.1, 33.59 27 C33.07 27.9, 32.46 28.77, 31.79 29.57 C31.12 30.37, 30.37 31.12, 29.57 31.79 C28.77 32.46, 27.9 33.07, 27 33.59 C26.1 34.11, 25.14 34.56, 24.16 34.91 C23.18 35.27, 22.15 35.55, 21.13 35.73 C20.1 35.91, 19.04 36, 18 36 C16.96 36, 15.9 35.91, 14.87 35.73 C13.85 35.55, 12.82 35.27, 11.84 34.91 C10.86 34.56, 9.9 34.11, 9 33.59 C8.1 33.07, 7.23 32.46, 6.43 31.79 C5.63 31.12, 4.88 30.37, 4.21 29.57 C3.54 28.77, 2.93 27.9, 2.41 27 C1.89 26.1, 1.44 25.14, 1.09 24.16 C0.73 23.18, 0.45 22.15, 0.27 21.13 C0.09 20.1, 0 19.04, 0 18 C0 16.96, 0.09 15.9, 0.27 14.87 C0.45 13.85, 0.73 12.82, 1.09 11.84 C1.44 10.86, 1.89 9.9, 2.41 9 C2.93 8.1, 3.54 7.23, 4.21 6.43 C4.88 5.63, 5.63 4.88, 6.43 4.21 C7.23 3.54, 8.1 2.93, 9 2.41 C9.9 1.89, 10.86 1.44, 11.84 1.09 C12.82 0.73, 13.85 0.45, 14.87 0.27 C15.9 0.09, 16.96 0, 18 0 C19.04 0, 20.1 0.09, 21.13 0.27 C22.15 0.45, 23.18 0.73, 24.16 1.09 C25.14 1.44, 26.1 1.89, 27 2.41 C27.9 2.93, 28.77 3.54, 29.57 4.21 C30.37 4.88, 31.12 5.63, 31.79 6.43 C32.46 7.23, 33.07 8.1, 33.59 9 C34.11 9.9, 34.56 10.86, 34.91 11.84 C35.27 12.82, 35.55 13.85, 35.73 14.87 C35.91 15.9, 35.95 17.48, 36 18 C36.05 18.52, 36.05 17.48, 36 18" stroke="#000" stroke-width="2" fill="none"/></g></svg>